<svg width="12" height="6" viewBox="0 0 12 6" fill="none" xmlns="http://www.w3.org/2000/svg">
<path d="M5.91588 5.94178C5.8479 5.94185 5.78058 5.92919 5.71779 5.90453C5.65499 5.87987 5.59796 5.84369 5.54996 5.79809L0.374334 0.893828C0.172097 0.702194 0.172097 0.391877 0.374334 0.200366C0.576572 0.00885477 0.904059 0.00873217 1.10617 0.200366L5.91588 4.75789L10.7256 0.200366C10.9278 0.00873217 11.2553 0.00873217 11.4574 0.200366C11.6595 0.392 11.6597 0.702317 11.4574 0.893828L6.28179 5.79809C6.2338 5.84369 6.17676 5.87987 6.11396 5.90453C6.05117 5.92919 5.98385 5.94185 5.91588 5.94178Z" fill="#103358"/>
</svg>
