<svg width="13" height="14" viewBox="0 0 13 14" fill="none" xmlns="http://www.w3.org/2000/svg">
<g clip-path="url(#clip0_116_2559)">
<path d="M6.27194 6.74384C7.28218 6.74384 8.15699 6.41154 8.87178 5.75592C9.58657 5.10044 9.9489 4.29839 9.9489 3.37183C9.9489 2.44553 9.58657 1.64341 8.87166 0.98768C8.15676 0.33228 7.28206 0 6.27194 0C5.26155 0 4.38695 0.33228 3.67219 0.987789C2.95743 1.6433 2.59495 2.44545 2.59495 3.37183C2.59495 4.29839 2.9574 5.10055 3.67231 5.75605C4.38722 6.41145 5.26191 6.74384 6.27194 6.74384ZM12.7056 10.7653C12.685 10.4925 12.6433 10.1949 12.5819 9.88068C12.52 9.56407 12.4402 9.26479 12.3447 8.99125C12.246 8.70851 12.1119 8.42933 11.946 8.16175C11.7739 7.88405 11.5717 7.64222 11.3448 7.44324C11.1075 7.23507 10.8171 7.0677 10.4812 6.94559C10.1464 6.82418 9.77546 6.76266 9.37866 6.76266C9.22281 6.76266 9.07212 6.82128 8.78105 6.99508C8.57415 7.11863 8.36664 7.24131 8.15851 7.36312C7.95854 7.47999 7.68762 7.58947 7.35299 7.68859C7.02654 7.78547 6.69507 7.83461 6.36789 7.83461C6.04075 7.83461 5.70937 7.78547 5.38255 7.68859C5.04831 7.58956 4.77739 7.4801 4.57762 7.36323C4.34595 7.22747 4.13634 7.10358 3.95452 6.99494C3.66381 6.82117 3.51297 6.76252 3.35715 6.76252C2.9602 6.76252 2.58938 6.82415 2.25475 6.94572C1.91908 7.06759 1.62848 7.23496 1.391 7.44335C1.16424 7.64244 0.961939 7.88413 0.790018 8.16175C0.624299 8.42931 0.490125 8.7084 0.391343 8.99135C0.295931 9.2649 0.216172 9.56407 0.154213 9.88068C0.0928212 10.1945 0.0511379 10.4922 0.030505 10.7656C0.00997998 11.0408 -0.000193453 11.3165 2.78527e-06 11.5923C2.78527e-06 12.3231 0.253323 12.9147 0.752867 13.3511C1.24624 13.7816 1.89904 14.0001 2.6929 14.0001H10.0436C10.8375 14.0001 11.49 13.7817 11.9835 13.3511C12.4832 12.9151 12.7365 12.3233 12.7365 11.5922C12.7364 11.3101 12.726 11.0319 12.7056 10.7653Z" fill="#398AC8"/>
</g>
<defs>
<clipPath id="clip0_116_2559">
<rect width="13" height="14" fill="white"/>
</clipPath>
</defs>
</svg>
