<svg width="18" height="18" viewBox="0 0 18 18" fill="none" xmlns="http://www.w3.org/2000/svg">
<path d="M13.5169 1.125H4.48312C4.1707 1.12537 3.87117 1.24965 3.65025 1.47057C3.42934 1.69149 3.30506 1.99101 3.30469 2.30344V15.6966C3.30506 16.009 3.42934 16.3085 3.65025 16.5294C3.87117 16.7504 4.1707 16.8746 4.48312 16.875H13.5169C13.8293 16.8746 14.1288 16.7504 14.3497 16.5294C14.5707 16.3085 14.6949 16.009 14.6953 15.6966V2.30344C14.6949 1.99101 14.5707 1.69149 14.3497 1.47057C14.1288 1.24965 13.8293 1.12537 13.5169 1.125ZM12.8925 12.3413H11.5341C11.497 12.3416 11.4603 12.3346 11.426 12.3206C11.3917 12.3066 11.3605 12.2859 11.3344 12.2597C11.3082 12.2335 11.2875 12.2024 11.2735 12.1681C11.2595 12.1338 11.2524 12.097 11.2528 12.06V10.6988C11.2527 10.6618 11.2599 10.6252 11.274 10.591C11.2881 10.5568 11.3088 10.5258 11.3349 10.4996C11.3611 10.4735 11.3921 10.4528 11.4263 10.4387C11.4605 10.4246 11.4971 10.4174 11.5341 10.4175H12.8925C12.967 10.4177 13.0384 10.4474 13.0911 10.5001C13.1438 10.5528 13.1735 10.6242 13.1737 10.6988V12.06C13.1739 12.097 13.1667 12.1336 13.1526 12.1678C13.1385 12.2019 13.1178 12.233 13.0916 12.2591C13.0655 12.2853 13.0344 12.306 13.0003 12.3201C12.9661 12.3342 12.9295 12.3414 12.8925 12.3413ZM13.1737 13.5844V14.9484C13.1735 15.023 13.1438 15.0944 13.0911 15.1471C13.0384 15.1998 12.967 15.2295 12.8925 15.2297H11.5341C11.4971 15.2298 11.4605 15.2226 11.4263 15.2085C11.3921 15.1944 11.3611 15.1737 11.3349 15.1476C11.3088 15.1214 11.2881 15.0904 11.274 15.0562C11.2599 15.022 11.2527 14.9854 11.2528 14.9484V13.5844C11.2527 13.5474 11.2599 13.5108 11.274 13.4766C11.2881 13.4424 11.3088 13.4114 11.3349 13.3853C11.3611 13.3591 11.3921 13.3384 11.4263 13.3243C11.4605 13.3102 11.4971 13.303 11.5341 13.3031H12.8925C12.967 13.3033 13.0384 13.3331 13.0911 13.3857C13.1438 13.4384 13.1735 13.5099 13.1737 13.5844ZM5.13844 6.57C5.06391 6.56978 4.99251 6.54007 4.93981 6.48738C4.88711 6.43468 4.85741 6.36327 4.85719 6.28875V3.03469C4.85708 2.99772 4.86427 2.9611 4.87837 2.92693C4.89246 2.89275 4.91318 2.8617 4.93932 2.83557C4.96545 2.80943 4.9965 2.78871 5.03068 2.77462C5.06485 2.76052 5.10147 2.75333 5.13844 2.75344H12.8616C12.8985 2.75333 12.9352 2.76052 12.9693 2.77462C13.0035 2.78871 13.0345 2.80943 13.0607 2.83557C13.0868 2.8617 13.1075 2.89275 13.1216 2.92693C13.1357 2.9611 13.1429 2.99772 13.1428 3.03469V6.28875C13.1426 6.36327 13.1129 6.43468 13.0602 6.48738C13.0075 6.54007 12.9361 6.56978 12.8616 6.57H5.13844ZM9.68062 9.45562H8.31938C8.24485 9.4554 8.17344 9.4257 8.12075 9.373C8.06805 9.32031 8.03835 9.2489 8.03813 9.17437V7.81313C8.03801 7.77616 8.04521 7.73954 8.05931 7.70536C8.0734 7.67119 8.09411 7.64014 8.12025 7.614C8.14639 7.58786 8.17744 7.56715 8.21161 7.55306C8.24579 7.53896 8.28241 7.53176 8.31938 7.53188H9.68062C9.71759 7.53176 9.75421 7.53896 9.78839 7.55306C9.82256 7.56715 9.85361 7.58786 9.87975 7.614C9.90589 7.64014 9.9266 7.67119 9.94069 7.70536C9.95479 7.73954 9.96199 7.77616 9.96187 7.81313V9.17437C9.96165 9.2489 9.93195 9.32031 9.87925 9.373C9.82656 9.4257 9.75515 9.4554 9.68062 9.45562ZM9.96187 10.6988V12.06C9.96199 12.097 9.95479 12.1336 9.94069 12.1678C9.9266 12.2019 9.90589 12.233 9.87975 12.2591C9.85361 12.2853 9.82256 12.306 9.78839 12.3201C9.75421 12.3342 9.71759 12.3414 9.68062 12.3413H8.31938C8.28241 12.3414 8.24579 12.3342 8.21161 12.3201C8.17744 12.306 8.14639 12.2853 8.12025 12.2591C8.09411 12.233 8.0734 12.2019 8.05931 12.1678C8.04521 12.1336 8.03801 12.097 8.03813 12.06V10.6988C8.03835 10.6242 8.06805 10.5528 8.12075 10.5001C8.17344 10.4474 8.24485 10.4177 8.31938 10.4175H9.68062C9.75515 10.4177 9.82656 10.4474 9.87925 10.5001C9.93195 10.5528 9.96165 10.6242 9.96187 10.6988ZM5.1075 7.53188H6.46594C6.50298 7.5315 6.53972 7.53852 6.57401 7.55252C6.6083 7.56652 6.63946 7.58722 6.66565 7.61341C6.69184 7.63961 6.71254 7.67076 6.72654 7.70505C6.74055 7.73934 6.74756 7.77609 6.74719 7.81313V9.17437C6.7473 9.21134 6.7401 9.24796 6.72601 9.28214C6.71191 9.31631 6.6912 9.34736 6.66506 9.3735C6.63892 9.39964 6.60787 9.42035 6.5737 9.43444C6.53953 9.44854 6.5029 9.45574 6.46594 9.45562H5.1075C5.03298 9.4554 4.96157 9.4257 4.90887 9.373C4.85618 9.32031 4.82647 9.2489 4.82625 9.17437V7.81313C4.82614 7.77616 4.83334 7.73954 4.84743 7.70536C4.86153 7.67119 4.88224 7.64014 4.90838 7.614C4.93452 7.58786 4.96557 7.56715 4.99974 7.55306C5.03391 7.53896 5.07053 7.53176 5.1075 7.53188ZM5.1075 10.4175H6.46594C6.5029 10.4174 6.53953 10.4246 6.5737 10.4387C6.60787 10.4528 6.63892 10.4735 6.66506 10.4996C6.6912 10.5258 6.71191 10.5568 6.72601 10.591C6.7401 10.6252 6.7473 10.6618 6.74719 10.6988V12.06C6.74756 12.097 6.74055 12.1338 6.72654 12.1681C6.71254 12.2024 6.69184 12.2335 6.66565 12.2597C6.63946 12.2859 6.6083 12.3066 6.57401 12.3206C6.53972 12.3346 6.50298 12.3416 6.46594 12.3413H5.1075C5.07053 12.3414 5.03391 12.3342 4.99974 12.3201C4.96557 12.306 4.93452 12.2853 4.90838 12.2591C4.88224 12.233 4.86153 12.2019 4.84743 12.1678C4.83334 12.1336 4.82614 12.097 4.82625 12.06V10.6988C4.82647 10.6242 4.85618 10.5528 4.90887 10.5001C4.96157 10.4474 5.03298 10.4177 5.1075 10.4175ZM5.1075 13.3031H9.68062C9.75515 13.3033 9.82656 13.3331 9.87925 13.3857C9.93195 13.4384 9.96165 13.5099 9.96187 13.5844V14.9484C9.96165 15.023 9.93195 15.0944 9.87925 15.1471C9.82656 15.1998 9.75515 15.2295 9.68062 15.2297H5.1075C5.03298 15.2295 4.96157 15.1998 4.90887 15.1471C4.85618 15.0944 4.82647 15.023 4.82625 14.9484V13.5844C4.82647 13.5099 4.85618 13.4384 4.90887 13.3857C4.96157 13.3331 5.03298 13.3033 5.1075 13.3031ZM13.1737 9.17437C13.1735 9.2489 13.1438 9.32031 13.0911 9.373C13.0384 9.4257 12.967 9.4554 12.8925 9.45562H11.5341C11.4971 9.45574 11.4605 9.44854 11.4263 9.43444C11.3921 9.42035 11.3611 9.39964 11.3349 9.3735C11.3088 9.34736 11.2881 9.31631 11.274 9.28214C11.2599 9.24796 11.2527 9.21134 11.2528 9.17437V7.81313C11.2524 7.77609 11.2595 7.73934 11.2735 7.70505C11.2875 7.67076 11.3082 7.63961 11.3344 7.61341C11.3605 7.58722 11.3917 7.56652 11.426 7.55252C11.4603 7.53852 11.497 7.5315 11.5341 7.53188H12.8925C12.9295 7.53176 12.9661 7.53896 13.0003 7.55306C13.0344 7.56715 13.0655 7.58786 13.0916 7.614C13.1178 7.64014 13.1385 7.67119 13.1526 7.70536C13.1667 7.73954 13.1739 7.77616 13.1737 7.81313V9.17437Z" fill="#ABABAB"/>
<path d="M5.41961 3.31592H12.5802V6.00748H5.41961V3.31592ZM5.38867 8.09436H6.18461V8.89311H5.38867V8.09436ZM8.60055 8.09436H9.3993V8.89311H8.60055V8.09436ZM11.8152 8.09436H12.6112V8.89311H11.8152V8.09436ZM5.38867 10.98H6.18461V11.7787H5.38867V10.98ZM8.60055 10.98H9.3993V11.7787H8.60055V10.98ZM11.8152 10.98H12.6112V11.7787H11.8152V10.98ZM5.38867 13.8656H9.3993V14.6672H5.38867V13.8656ZM11.8152 13.8656H12.6112V14.6672H11.8152V13.8656Z" fill="#ABABAB"/>
</svg>
