<svg width="20" height="20" viewBox="0 0 20 20" fill="none" xmlns="http://www.w3.org/2000/svg">
<path d="M9.77529 18.534C4.94429 18.534 1.01758 14.6073 1.01758 9.77627C1.01758 4.94527 4.94429 1.01855 9.77529 1.01855C14.6063 1.01855 18.533 4.94527 18.533 9.77627C18.533 14.6073 14.6063 18.534 9.77529 18.534ZM9.77529 2.24056C5.62047 2.24056 2.23958 5.62145 2.23958 9.77627C2.23958 13.9311 5.62047 17.312 9.77529 17.312C13.9301 17.312 17.311 13.9311 17.311 9.77627C17.311 5.62145 13.9301 2.24056 9.77529 2.24056Z" fill="#292D32"/>
<path d="M7.47029 12.6923C7.31551 12.6923 7.16072 12.6353 7.03852 12.5131C6.80226 12.2769 6.80226 11.8858 7.03852 11.6496L11.6496 7.03852C11.8858 6.80226 12.2769 6.80226 12.5131 7.03852C12.7494 7.27477 12.7494 7.66582 12.5131 7.90207L7.90207 12.5131C7.78802 12.6353 7.62508 12.6923 7.47029 12.6923Z" fill="#292D32"/>
<path d="M12.0813 12.6923C11.9265 12.6923 11.7718 12.6353 11.6496 12.5131L7.03852 7.90207C6.80226 7.66582 6.80226 7.27477 7.03852 7.03852C7.27477 6.80226 7.66582 6.80226 7.90207 7.03852L12.5131 11.6496C12.7494 11.8858 12.7494 12.2769 12.5131 12.5131C12.3909 12.6353 12.2361 12.6923 12.0813 12.6923Z" fill="#292D32"/>
</svg>
