<svg width="18" height="18" viewBox="0 0 18 18" fill="none" xmlns="http://www.w3.org/2000/svg">
<g clip-path="url(#clip0_116_2539)">
<path d="M14.25 9.03472C13.8352 9.03472 13.5 9.37077 13.5 9.78467V15.7847C13.5 16.1979 13.1639 16.5347 12.75 16.5347H2.25C1.83597 16.5347 1.50005 16.1979 1.50005 15.7847V5.28467C1.50005 4.87144 1.83597 4.53471 2.25 4.53471H8.25005C8.66479 4.53471 9 4.19869 9 3.78476C9 3.37073 8.66479 3.03467 8.25005 3.03467H2.25C1.00951 3.03467 0 4.04418 0 5.28467V15.7847C0 17.0252 1.00951 18.0347 2.25 18.0347H12.75C13.9905 18.0347 15 17.0252 15 15.7847V9.78467C15 9.36997 14.6647 9.03472 14.25 9.03472Z" fill="#398AC8"/>
<path d="M7.03283 8.35132C6.9807 8.40369 6.945 8.47013 6.9301 8.5425L6.39988 11.1946C6.37516 11.3175 6.41415 11.4443 6.5026 11.5335C6.53751 11.5683 6.57893 11.5959 6.6245 11.6147C6.67006 11.6335 6.71889 11.6431 6.76817 11.643C6.79208 11.643 6.81694 11.6408 6.84165 11.6356L9.49292 11.1054C9.5664 11.0902 9.63313 11.0551 9.68491 11.0025L15.6189 5.06847L12.9676 2.41734L7.03283 8.35132ZM17.4518 0.58362C16.7207 -0.147665 15.5312 -0.147665 14.8006 0.58362L13.7626 1.62154L16.4139 4.27281L17.4518 3.23475C17.8059 2.88154 18.0009 2.41048 18.0009 1.9095C18.0009 1.40853 17.8059 0.937503 17.4518 0.58362Z" fill="#398AC8"/>
</g>
<defs>
<clipPath id="clip0_116_2539">
<rect width="18" height="18" fill="white"/>
</clipPath>
</defs>
</svg>
