<svg width="17" height="18" viewBox="0 0 17 18" fill="none" xmlns="http://www.w3.org/2000/svg">
<g clip-path="url(#clip0_4588_8225)">
<path d="M6.21955 8.891C6.48667 9.27755 6.40682 8.95544 6.40682 16.6604C6.40682 17.3499 7.19346 17.7445 7.74789 17.3321C10.117 15.5459 10.5904 15.3912 10.5904 14.5557C10.5904 8.94093 10.5249 9.25669 10.7776 8.891L14.6249 3.65426H2.37237L6.21955 8.891ZM16.0781 0.926992C15.9407 0.663691 15.6711 0.5 15.3742 0.5H1.62297C0.981988 0.5 0.604834 1.22306 0.972525 1.74844C0.975547 1.75348 0.930789 1.69222 1.64057 2.6582H15.3566C15.9615 1.835 16.3658 1.47933 16.0781 0.926992Z" fill="#103358"/>
</g>
<defs>
<clipPath id="clip0_4588_8225">
<rect width="17" height="17" fill="white" transform="translate(0 0.5)"/>
</clipPath>
</defs>
</svg>
