<svg width="14" height="14" viewBox="0 0 14 14" fill="none" xmlns="http://www.w3.org/2000/svg">
<path d="M10.4974 7.58366H3.4974C3.1474 7.58366 2.91406 7.35033 2.91406 7.00033C2.91406 6.65033 3.1474 6.41699 3.4974 6.41699H10.4974C10.8474 6.41699 11.0807 6.65033 11.0807 7.00033C11.0807 7.35033 10.8474 7.58366 10.4974 7.58366ZM8.7474 11.0837H5.2474C4.8974 11.0837 4.66406 10.8503 4.66406 10.5003C4.66406 10.1503 4.8974 9.91699 5.2474 9.91699H8.7474C9.0974 9.91699 9.33073 10.1503 9.33073 10.5003C9.33073 10.8503 9.0974 11.0837 8.7474 11.0837ZM12.2474 4.08366H1.7474C1.3974 4.08366 1.16406 3.85033 1.16406 3.50033C1.16406 3.15033 1.3974 2.91699 1.7474 2.91699H12.2474C12.5974 2.91699 12.8307 3.15033 12.8307 3.50033C12.8307 3.85033 12.5974 4.08366 12.2474 4.08366Z" fill="white"/>
</svg>
