<svg width="700" height="470" viewBox="0 0 700 470" fill="none" xmlns="http://www.w3.org/2000/svg">
<path d="M696.401 457.947H3L60.6035 404.664H616.33L696.401 457.947Z" fill="#F3F3F3" stroke="#1E344A" stroke-width="1.7394" stroke-miterlimit="10"/>
<path d="M697 457.864H3V469.385H697V457.864Z" fill="#1E344A"/>
<path d="M288.767 446.247C305.021 446.247 318.199 443.103 318.199 439.226C318.199 435.349 305.021 432.205 288.767 432.205C272.512 432.205 259.335 435.349 259.335 439.226C259.335 443.103 272.512 446.247 288.767 446.247Z" fill="#D8D8D8"/>
<path d="M229.634 428.965C235.897 428.965 240.974 426.789 240.974 424.105C240.974 421.421 235.897 419.245 229.634 419.245C223.37 419.245 218.293 421.421 218.293 424.105C218.293 426.789 223.37 428.965 229.634 428.965Z" fill="#D8D8D8"/>
<path opacity="0.5" d="M222.253 320.419C310.734 320.419 382.462 248.691 382.462 160.21C382.462 71.7283 310.734 0 222.253 0C133.771 0 62.0431 71.7283 62.0431 160.21C62.0431 248.691 133.771 320.419 222.253 320.419Z" fill="#398AC8"/>
<path d="M61.6835 426.625L86.7649 409.704H191.171L192.059 410.623C195.5 414.187 196.12 419.617 193.571 423.864L168.37 442.586" fill="#F5F5F5"/>
<path d="M61.6835 426.625L86.7649 409.704H191.171L192.059 410.623C195.5 414.187 196.12 419.617 193.571 423.864L168.37 442.586" stroke="#4D4B4C" stroke-width="1.59385" stroke-miterlimit="10"/>
<path d="M187.451 431.926C186.923 431.926 186.495 431.498 186.495 430.97C186.495 430.442 186.923 430.014 187.451 430.014C192.718 430.014 197.003 425.728 197.003 420.461C197.003 415.194 192.718 410.909 187.451 410.909C186.78 410.909 186.111 410.979 185.462 411.116C184.95 411.219 184.439 410.895 184.329 410.379C184.22 409.862 184.55 409.355 185.067 409.245C185.846 409.08 186.647 408.996 187.451 408.996C193.773 408.996 198.916 414.14 198.916 420.461C198.916 426.783 193.773 431.926 187.451 431.926Z" fill="#F5F5F5" stroke="#4D4B4C" stroke-width="1.59385" stroke-miterlimit="10"/>
<path d="M163.75 443.546H61.6835L62.1846 442.85C65.7108 437.953 65.5055 431.296 61.6835 426.625H163.75C168.422 426.625 172.21 430.413 172.21 435.086C172.21 439.758 168.422 443.546 163.75 443.546Z" fill="#F5F5F5" stroke="#4D4B4C" stroke-width="1.59385" stroke-miterlimit="10"/>
<path d="M179.171 438.046C178.643 438.046 178.214 437.617 178.214 437.09C178.214 436.562 178.643 436.133 179.171 436.133C184.438 436.133 188.723 431.848 188.723 426.581C188.723 421.314 184.437 417.029 179.171 417.029C178.5 417.029 177.83 417.098 177.182 417.236C176.669 417.339 176.158 417.015 176.049 416.498C175.939 415.981 176.27 415.474 176.786 415.365C177.565 415.2 178.367 415.116 179.171 415.116C185.492 415.116 190.635 420.259 190.635 426.581C190.635 432.903 185.492 438.046 179.171 438.046Z" fill="#F5F5F5" stroke="#4D4B4C" stroke-width="1.59385" stroke-miterlimit="10"/>
<path d="M169.45 443.927C168.922 443.927 168.494 443.498 168.494 442.97C168.494 442.442 168.922 442.014 169.45 442.014C174.717 442.014 179.002 437.728 179.002 432.462C179.002 427.195 174.717 422.909 169.45 422.909C168.779 422.909 168.11 422.979 167.461 423.117C166.949 423.219 166.438 422.895 166.328 422.379C166.219 421.863 166.549 421.355 167.066 421.245C167.845 421.08 168.646 420.997 169.45 420.997C175.772 420.997 180.915 426.14 180.915 432.462C180.915 438.784 175.772 443.927 169.45 443.927Z" fill="#F5F5F5" stroke="#4D4B4C" stroke-width="1.59385" stroke-miterlimit="10"/>
<path d="M64.0233 430.045H170.05" stroke="#4D4B4C" stroke-width="0.61038" stroke-miterlimit="10"/>
<path d="M64.0233 433.345H171.67" stroke="#4D4B4C" stroke-width="0.61038" stroke-miterlimit="10"/>
<path d="M64.0233 436.646H172.03" stroke="#4D4B4C" stroke-width="0.61038" stroke-miterlimit="10"/>
<path d="M64.0233 439.946H170.05" stroke="#4D4B4C" stroke-width="0.61038" stroke-miterlimit="10"/>
<path d="M322.339 182.171C322.339 182.171 306.138 183.611 293.538 186.851C280.937 190.091 257.895 201.612 257.895 201.612L268.336 279.016L274.456 404.304H469.587L486.508 285.856L488.308 191.531C488.308 191.531 464.546 187.211 449.426 185.41C434.305 183.611 425.305 184.33 425.305 184.33L322.339 182.171Z" fill="#66B4BF" stroke="#1E344A" stroke-width="1.59385" stroke-miterlimit="10"/>
<path d="M404.064 161.29C404.064 161.29 407.664 172.45 413.424 178.211C419.184 183.971 425.305 184.331 425.305 184.331C425.305 184.331 415.224 224.653 369.862 223.934C329.878 223.299 322.339 182.171 322.339 182.171C322.339 182.171 335.299 182.531 339.26 176.051C343.22 169.57 341.78 162.01 341.78 162.01L404.064 161.29Z" fill="#FAEFCF" stroke="#1E344A" stroke-width="1.59385" stroke-miterlimit="10"/>
<path d="M317.299 182.531C317.299 182.531 318.018 209.532 343.94 224.293C369.862 239.054 402.474 228.205 412.344 219.253C427.825 205.212 431.425 183.971 431.425 183.971" stroke="#4D4B4C" stroke-width="1.59385" stroke-miterlimit="10"/>
<path d="M339.26 176.051C339.26 176.051 351.14 198.372 359.781 201.972C368.421 205.573 385.703 205.573 392.183 201.253C398.664 196.933 410.184 175.331 410.184 175.331L404.064 161.29L341.78 162.01C341.78 162.01 342.5 166.69 341.78 170.29C341.06 173.89 339.26 176.051 339.26 176.051Z" fill="#1E344A"/>
<path d="M318.379 189.371L323.779 187.571" stroke="#4D4B4C" stroke-width="1.59385" stroke-miterlimit="10"/>
<path d="M320.539 195.851L325.939 193.691" stroke="#4D4B4C" stroke-width="1.59385" stroke-miterlimit="10"/>
<path d="M324.139 205.212L330.619 202.332" stroke="#4D4B4C" stroke-width="1.59385" stroke-miterlimit="10"/>
<path d="M331.34 212.772L335.66 209.892" stroke="#4D4B4C" stroke-width="1.59385" stroke-miterlimit="10"/>
<path d="M337.46 220.333L341.78 216.013" stroke="#4D4B4C" stroke-width="1.59385" stroke-miterlimit="10"/>
<path d="M345.02 224.293L349.341 219.973" stroke="#4D4B4C" stroke-width="1.59385" stroke-miterlimit="10"/>
<path d="M356.541 229.334L359.061 223.213" stroke="#4D4B4C" stroke-width="1.59385" stroke-miterlimit="10"/>
<path d="M365.901 231.133L366.261 224.293" stroke="#4D4B4C" stroke-width="1.59385" stroke-miterlimit="10"/>
<path d="M377.422 231.493L376.703 224.653" stroke="#4D4B4C" stroke-width="1.59385" stroke-miterlimit="10"/>
<path d="M387.143 230.414L384.623 222.853" stroke="#4D4B4C" stroke-width="1.59385" stroke-miterlimit="10"/>
<path d="M397.943 227.533L395.064 219.253" stroke="#4D4B4C" stroke-width="1.59385" stroke-miterlimit="10"/>
<path d="M405.504 223.573L401.183 216.373" stroke="#4D4B4C" stroke-width="1.59385" stroke-miterlimit="10"/>
<path d="M412.704 218.533L407.664 212.772" stroke="#4D4B4C" stroke-width="1.59385" stroke-miterlimit="10"/>
<path d="M418.105 212.413L412.704 207.733" stroke="#4D4B4C" stroke-width="1.59385" stroke-miterlimit="10"/>
<path d="M422.065 207.372L417.025 203.052" stroke="#4D4B4C" stroke-width="1.59385" stroke-miterlimit="10"/>
<path d="M426.025 199.451L420.985 196.211" stroke="#4D4B4C" stroke-width="1.59385" stroke-miterlimit="10"/>
<path d="M429.265 191.171L422.785 190.091" stroke="#4D4B4C" stroke-width="1.59385" stroke-miterlimit="10"/>
<path d="M488.309 191.531C488.309 191.531 512.43 208.813 524.671 230.053C536.911 251.295 547.712 273.976 547.712 273.976C547.712 273.976 525.39 288.737 510.99 293.777C496.589 298.818 484.348 299.537 484.348 299.537C484.348 299.537 481.468 267.136 482.548 240.854C483.628 214.573 488.309 191.531 488.309 191.531Z" fill="#66B4BF" stroke="#1E344A" stroke-width="1.59385" stroke-miterlimit="10"/>
<path d="M257.895 201.612C257.895 201.612 269.776 225.014 274.096 247.695C278.416 270.376 269.056 289.457 269.056 289.457L246.015 331.94C246.015 331.94 238.094 317.899 224.413 309.618C210.733 301.338 193.451 300.258 193.451 300.258C193.451 300.258 207.852 260.655 220.813 238.334C233.774 216.013 257.895 201.612 257.895 201.612Z" fill="#66B4BF" stroke="#1E344A" stroke-width="1.59385" stroke-miterlimit="10"/>
<path d="M246.015 331.94C246.015 331.94 229.094 362.181 216.853 375.502C204.612 388.823 189.131 396.023 189.131 396.023C189.131 396.023 198.132 384.143 192.732 366.862C187.332 349.58 172.93 343.46 172.93 343.46L193.451 300.258C193.451 300.258 213.613 302.058 224.413 309.618C235.214 317.179 246.015 331.94 246.015 331.94Z" fill="#FAEFCF" stroke="#1E344A" stroke-width="1.59385" stroke-miterlimit="10"/>
<path d="M126.847 399.143C126.847 399.143 148.448 403.224 164.769 401.544C181.09 399.864 189.131 396.023 189.131 396.023C189.131 396.023 197.516 381.216 192.731 366.862C186.85 349.221 172.93 343.46 172.93 343.46C172.93 343.46 163.329 344.18 155.889 349.22C148.448 354.261 130.927 360.261 123.727 360.021C116.527 359.781 112.206 358.101 112.206 358.101C112.206 358.101 109.326 376.342 114.366 384.982C119.407 393.623 126.847 399.143 126.847 399.143Z" fill="#FAEFCF" stroke="#1E344A" stroke-width="1.59385" stroke-miterlimit="10"/>
<path d="M126.368 364.582C126.368 364.582 137.408 360.501 141.489 361.701C145.569 362.901 147.729 370.102 148.449 374.182C149.17 378.263 154.69 388.583 153.249 390.023C151.809 391.464 148.209 390.983 144.849 389.063C141.489 387.143 138.369 379.463 138.369 379.463L126.368 364.582Z" fill="#FAEFCF" stroke="#1E344A" stroke-width="1.59385" stroke-miterlimit="10"/>
<path d="M86.2071 324.818L149.408 407.784L159.249 412.584L156.129 402.983L92.9599 319.684C91.628 317.928 89.1729 317.485 87.3113 318.664C85.2106 319.995 84.6999 322.84 86.2071 324.818Z" fill="white" stroke="#4D4B4C" stroke-width="1.59385" stroke-miterlimit="10"/>
<path d="M196.331 295.937C196.331 295.937 213.252 294.497 227.293 303.857C241.334 313.218 247.814 326.179 247.814 326.179" stroke="#4D4B4C" stroke-width="1.59385" stroke-miterlimit="10"/>
<path d="M109.326 354.261C109.326 354.261 103.086 353.781 100.446 354.741C97.8059 355.701 95.8856 359.302 95.8856 359.302C95.8856 359.302 88.2052 363.622 86.5253 366.262C84.8453 368.902 84.125 372.263 84.125 372.263C84.125 372.263 81.7246 376.343 81.7246 381.863C81.7246 387.384 82.2047 392.664 82.2047 392.664L86.5246 398.665C86.5246 398.665 84.3647 402.745 85.8049 407.545C87.2451 412.345 85.5651 412.825 92.0451 416.665C98.525 420.506 111.486 423.386 116.766 423.146C122.046 422.906 144.128 416.185 145.088 414.266C146.048 412.346 144.128 409.225 144.128 409.225C144.128 409.225 146.288 408.745 146.529 405.865C146.769 402.985 143.648 399.145 143.648 399.145C143.648 399.145 145.808 396.985 145.808 393.384C145.808 389.784 140.048 384.984 140.048 384.984L133.808 379.223L109.326 354.261Z" fill="#FAEFCF" stroke="#1E344A" stroke-width="1.59385" stroke-miterlimit="10"/>
<path d="M143.648 399.143C143.648 399.143 111.727 386.663 106.686 379.462C101.646 372.262 95.8856 359.302 95.8856 359.302" stroke="#1E344A" stroke-width="1.59385" stroke-miterlimit="10"/>
<path d="M144.128 409.224C144.128 409.224 110.646 402.504 105.246 398.904C99.8454 395.303 84.125 372.262 84.125 372.262" stroke="#1E344A" stroke-width="1.59385" stroke-miterlimit="10"/>
<path d="M139.088 408.624C139.088 408.624 120.367 415.464 111.727 412.944C103.086 410.424 86.5253 398.663 86.5253 398.663" stroke="#1E344A" stroke-width="1.59385" stroke-miterlimit="10"/>
<path d="M317.659 82.8049C317.659 82.8049 321.619 133.928 330.259 154.449C338.9 174.97 356.181 193.151 361.581 194.771C366.982 196.391 385.702 196.931 391.103 191.531C396.504 186.131 414.504 167.59 420.984 136.808C427.464 106.027 425.125 75.7849 425.125 75.7849L390.022 43.3833L349.52 46.0833L336.02 57.9638L317.659 82.8049Z" fill="#FAEFCF" stroke="#1E344A" stroke-width="1.59385" stroke-miterlimit="10"/>
<path d="M319.818 104.766C319.818 104.766 309.018 79.9244 311.538 61.5633C314.058 43.2022 326.299 24.841 326.299 24.841L326.659 33.8418C326.659 33.8418 341.42 19.8013 358.341 13.3207C375.262 6.84013 392.903 5.76013 392.903 5.76013L386.423 14.0405C386.423 14.0405 401.904 19.8007 412.705 23.761C423.505 27.7214 442.227 26.2812 441.506 29.5212C440.786 32.7612 431.786 35.2814 431.786 35.2814C431.786 35.2814 437.186 50.0423 441.866 55.0827C446.547 60.1231 445.106 67.6837 442.227 66.9632C439.346 66.2435 431.066 68.4034 431.066 68.4034C431.066 68.4034 442.946 77.4042 438.266 79.5642C433.586 81.7242 387.503 80.284 387.503 80.284C387.503 80.284 396.504 85.3243 392.904 86.4043C389.304 87.4843 357.262 88.5643 345.741 84.2444C334.221 79.9244 326.661 77.7638 326.661 77.7638L319.818 104.766Z" fill="#1E344A"/>
<path d="M419.544 79.925L425.305 109.806L434.665 77.4048L419.544 79.925Z" fill="#1E344A"/>
<path d="M318.019 87.1248C318.019 87.1248 313.699 85.6846 307.938 87.1248C302.178 88.565 297.137 93.2452 297.137 93.2452L304.338 146.169C304.338 146.169 311.898 150.849 317.298 150.129C322.698 149.409 327.739 147.249 327.739 147.249L318.019 87.1248Z" fill="#D65555" stroke="#1E344A" stroke-width="1.59385" stroke-miterlimit="10"/>
<path d="M299.465 109.741L291.241 110.706L294.137 135.379L302.361 134.414L299.465 109.741Z" fill="#D65555" stroke="#1E344A" stroke-width="1.59385" stroke-miterlimit="10"/>
<path d="M429.023 87.1248C429.023 87.1248 433.343 85.6846 439.104 87.1248C444.864 88.565 449.904 93.2452 449.904 93.2452L442.704 146.169C442.704 146.169 435.143 150.849 429.744 150.129C424.344 149.409 419.303 147.249 419.303 147.249L429.023 87.1248Z" fill="#D65555" stroke="#1E344A" stroke-width="1.59385" stroke-miterlimit="10"/>
<path d="M444.7 134.398L452.924 135.364L455.821 110.691L447.597 109.725L444.7 134.398Z" fill="#D65555" stroke="#1E344A" stroke-width="1.59385" stroke-miterlimit="10"/>
<path d="M307.938 87.1247C309.57 87.1247 311.2 87.1247 312.661 87.1247C315.033 55.6182 341.348 30.7924 373.462 30.7924C405.305 30.7924 431.442 55.2031 434.194 86.331C435.76 86.3061 437.49 86.4878 439.104 87.1241C439.669 87.3472 440.208 87.5697 440.718 87.789C439.181 51.9689 409.66 23.4001 373.462 23.4001C337.412 23.4001 307.981 51.7343 306.222 87.3472C306.797 87.2114 307.372 87.1247 307.938 87.1247Z" fill="#D65555" stroke="#1E344A" stroke-width="1.59385" stroke-miterlimit="10"/>
<path opacity="0.2" d="M356.901 77.4049C368.706 80.583 377.422 80.6448 377.422 80.6448L373.102 73.0843C373.102 73.0843 388.583 74.1643 401.184 72.3645C413.785 70.5641 417.025 67.6843 417.025 67.6843C417.025 67.6843 401.904 67.6843 388.223 66.9645C374.542 66.2448 361.582 61.564 361.582 61.564L366.262 73.0849C366.262 73.0849 357.982 73.4451 350.061 70.2045C342.141 66.9645 332.06 60.8442 332.06 60.8442C332.06 60.8442 338.18 72.3645 356.901 77.4049Z" fill="#66B4BF"/>
<path opacity="0.2" d="M484.348 299.537C484.348 299.537 481.828 275.056 482.368 252.915C482.908 230.774 483.988 218.893 483.988 218.893C483.988 218.893 501.269 234.014 507.75 251.834C514.23 269.655 495.869 266.415 500.729 275.055C505.59 283.696 521.25 289.636 521.25 289.636C521.25 289.636 514.77 293.956 502.349 296.657C489.929 299.358 484.348 299.537 484.348 299.537Z" fill="#264366"/>
<path d="M623.048 254.535H378.789C372.467 254.535 367.342 259.66 367.342 265.982V426.805H624.937L634.475 266.663C634.867 260.085 629.638 254.535 623.048 254.535Z" fill="#D8D8D8" stroke="#1E344A" stroke-width="1.59385" stroke-miterlimit="10"/>
<path d="M367.341 426.805L341.06 403.584L340.34 397.103L366.982 420.865L367.341 426.805Z" fill="#D8D8D8" stroke="#1E344A" stroke-width="1.59385" stroke-miterlimit="10"/>
<path d="M366.982 420.865L340.34 397.103H367.341L366.982 420.865Z" fill="#9B9B9A" stroke="#1E344A" stroke-width="1.59385" stroke-miterlimit="10"/>
<path d="M502.349 364.702C512.788 364.702 521.25 356.239 521.25 345.8C521.25 335.362 512.788 326.899 502.349 326.899C491.91 326.899 483.448 335.362 483.448 345.8C483.448 356.239 491.91 364.702 502.349 364.702Z" fill="#F5F5F5"/>
<path d="M533.199 173.828C552.324 166.226 561.664 144.56 554.062 125.435C546.46 106.311 524.794 96.9702 505.67 104.572C486.546 112.174 477.205 133.84 484.807 152.965C492.409 172.089 514.075 181.43 533.199 173.828Z" stroke="#1E344A" stroke-width="1.59385" stroke-miterlimit="10"/>
<path d="M548.84 79.7714C564.349 79.7714 576.922 67.1988 576.922 51.6897C576.922 36.1806 564.349 23.608 548.84 23.608C533.331 23.608 520.759 36.1806 520.759 51.6897C520.759 67.1988 533.331 79.7714 548.84 79.7714Z" stroke="#1E344A" stroke-width="1.59385" stroke-miterlimit="10"/>
<path d="M535.876 118.222H502.935V160.164H535.876V118.222Z" stroke="#1E344A" stroke-width="1.59385" stroke-miterlimit="10"/>
<path d="M507.075 129.023H531.556" stroke="#1E344A" stroke-width="1.59385" stroke-miterlimit="10"/>
<path d="M507.075 133.523H531.556" stroke="#1E344A" stroke-width="1.59385" stroke-miterlimit="10"/>
<path d="M507.075 138.023H531.556" stroke="#1E344A" stroke-width="1.59385" stroke-miterlimit="10"/>
<path d="M507.075 142.523H531.556" stroke="#1E344A" stroke-width="1.59385" stroke-miterlimit="10"/>
<path d="M507.075 147.023H531.556" stroke="#1E344A" stroke-width="1.59385" stroke-miterlimit="10"/>
<path d="M531.916 151.344H518.235V156.924H531.916V151.344Z" fill="#C4C4C4"/>
<path d="M531.376 121.822H507.14V124.882H531.376V121.822Z" fill="#C4C4C4"/>
<path d="M535.784 35.1979L537.282 38.2339L540.631 38.7203L538.207 41.0836L538.78 44.4199L535.784 42.8445L532.787 44.4199L533.359 41.0836L530.935 38.7203L534.285 38.2339L535.784 35.1979Z" fill="#E6AF41" stroke="#1E344A" stroke-width="1.59385" stroke-miterlimit="10"/>
<path d="M535.784 47.0784L537.282 50.1144L540.631 50.6008L538.207 52.9642L538.78 56.3004L535.784 54.7257L532.787 56.3004L533.359 52.9642L530.935 50.6008L534.285 50.1144L535.784 47.0784Z" fill="#E6AF41" stroke="#1E344A" stroke-width="1.59385" stroke-miterlimit="10"/>
<path d="M535.784 58.9595L537.282 61.9949L540.631 62.482L538.207 64.8447L538.78 68.1816L535.784 66.6062L532.787 68.1816L533.359 64.8447L530.935 62.482L534.285 61.9949L535.784 58.9595Z" fill="#E6AF41" stroke="#1E344A" stroke-width="1.59385" stroke-miterlimit="10"/>
<path d="M544.784 40.8356H566.745" stroke="#1E344A" stroke-width="1.59385" stroke-miterlimit="10"/>
<path d="M544.784 53.0763H566.745" stroke="#1E344A" stroke-width="1.59385" stroke-miterlimit="10"/>
<path d="M544.784 65.3171H566.745" stroke="#1E344A" stroke-width="1.59385" stroke-miterlimit="10"/>
<path d="M170.23 188.651C179.475 188.651 186.971 181.156 186.971 171.91C186.971 162.664 179.475 155.169 170.23 155.169C160.984 155.169 153.489 162.664 153.489 171.91C153.489 181.156 160.984 188.651 170.23 188.651Z" stroke="white" stroke-width="1.27508" stroke-miterlimit="10"/>
<path d="M147.549 128.168C152.619 128.168 156.729 124.057 156.729 118.987C156.729 113.917 152.619 109.806 147.549 109.806C142.478 109.806 138.368 113.917 138.368 118.987C138.368 124.057 142.478 128.168 147.549 128.168Z" stroke="white" stroke-width="1.27508" stroke-miterlimit="10"/>
</svg>
