         <svg width="14" height="7" viewBox="0 0 14 7" fill="none" xmlns="http://www.w3.org/2000/svg">
<g clip-path="url(#clip0_4588_11772)">
<path d="M6.69796 6.30555C6.62097 6.30562 6.54473 6.29296 6.47361 6.2683C6.40249 6.24364 6.33789 6.20746 6.28353 6.16186L0.421786 1.2576C0.192738 1.06596 0.192738 0.755647 0.421786 0.564136C0.650834 0.372624 1.02174 0.372502 1.25064 0.564136L6.69796 5.12166L12.1453 0.564136C12.3743 0.372502 12.7452 0.372502 12.9741 0.564136C13.203 0.755769 13.2032 1.06609 12.9741 1.2576L7.11238 6.16186C7.05802 6.20746 6.99343 6.24364 6.92231 6.2683C6.85119 6.29296 6.77494 6.30562 6.69796 6.30555Z" fill="#103358"/>
</g>
<defs>
<clipPath id="clip0_4588_11772">
<rect width="13.3983" height="6.72584" fill="white"/>
</clipPath>
</defs>
</svg>