<svg width="9" height="16" viewBox="0 0 9 16" fill="none" xmlns="http://www.w3.org/2000/svg">
<path d="M0.562458 7.99996C0.562369 8.08615 0.579311 8.17151 0.612308 8.25113C0.645306 8.33075 0.693709 8.40307 0.754739 8.46393L7.31724 15.0264C7.57367 15.2829 7.98891 15.2829 8.24518 15.0264C8.50144 14.77 8.50161 14.3548 8.24518 14.0985L2.14665 7.99996L8.24518 1.90143C8.50161 1.645 8.50161 1.22976 8.24518 0.973491C7.98875 0.717225 7.57351 0.717061 7.31724 0.973491L0.754739 7.53599C0.693709 7.59685 0.645306 7.66917 0.612308 7.74879C0.579311 7.82841 0.562369 7.91377 0.562458 7.99996Z" fill="#103358"/>
</svg>
