<svg width="9" height="16" viewBox="0 0 9 16" fill="none" xmlns="http://www.w3.org/2000/svg">
<path d="M8.43754 7.99996C8.43763 8.08615 8.42069 8.17151 8.38769 8.25113C8.35469 8.33075 8.30629 8.40307 8.24526 8.46393L1.68276 15.0264C1.42633 15.2829 1.01109 15.2829 0.754822 15.0264C0.498557 14.77 0.498393 14.3548 0.754822 14.0985L6.85335 7.99996L0.754822 1.90143C0.498392 1.645 0.498392 1.22976 0.754822 0.973491C1.01125 0.717225 1.42649 0.717061 1.68276 0.973491L8.24526 7.53599C8.30629 7.59685 8.35469 7.66917 8.38769 7.74879C8.42069 7.82841 8.43763 7.91377 8.43754 7.99996Z" fill="#103358"/>
</svg>
