<svg width="20" height="20" viewBox="0 0 20 20" fill="none" xmlns="http://www.w3.org/2000/svg">
<path d="M7.56687 2.32211C9.19424 2.28122 10.8057 2.28122 12.4331 2.32211L12.4819 2.32308C13.7525 2.35499 14.7748 2.38157 15.5942 2.52425C16.452 2.67365 17.1497 2.95945 17.7387 3.55062C18.3253 4.13936 18.6107 4.82688 18.7573 5.67074C18.8969 6.47434 18.9175 7.47223 18.9438 8.70785L18.9448 8.75668C18.9625 9.58696 18.9625 10.4127 18.9448 11.243L18.9438 11.2918C18.9175 12.5275 18.8969 13.5253 18.7573 14.3289C18.6107 15.1729 18.3253 15.8603 17.7387 16.4491C17.1497 17.0403 16.4521 17.327 15.5942 17.4764C14.7748 17.6191 13.7524 17.6447 12.4819 17.6766L12.4331 17.6776C10.8057 17.7185 9.19424 17.7185 7.56687 17.6776L7.51804 17.6766C6.24752 17.6447 5.22511 17.6191 4.40574 17.4764C3.54783 17.327 2.85025 17.0403 2.2612 16.4491C1.67463 15.8603 1.38922 15.1729 1.24265 14.3289C1.10309 13.5253 1.08246 12.5275 1.05613 11.2918L1.05515 11.243C1.03744 10.4127 1.03744 9.58696 1.05515 8.75668L1.05613 8.70785C1.08246 7.47222 1.1031 6.47434 1.24265 5.67074C1.38923 4.82688 1.67469 4.13936 2.2612 3.55062C2.85022 2.95944 3.5479 2.67365 4.40574 2.52425C5.22513 2.38156 6.24745 2.35498 7.51804 2.32308L7.56687 2.32211ZM12.8813 8.80453C11.8036 9.41518 10.9275 9.7889 10.0005 9.7889C9.07339 9.7889 8.19733 9.41518 7.1196 8.80453L2.43503 6.15023C2.34847 6.81055 2.32845 7.64571 2.30417 8.78402C2.28685 9.5964 2.28685 10.4043 2.30417 11.2166C2.33181 12.5127 2.35359 13.4155 2.47507 14.1151C2.59138 14.7847 2.79108 15.2089 3.14695 15.5662C3.50044 15.9211 3.93021 16.1249 4.6196 16.245C5.3373 16.3699 6.26756 16.3941 7.59812 16.4276C9.20467 16.4679 10.7953 16.4679 12.4018 16.4276C13.7324 16.3941 14.6626 16.3699 15.3803 16.245C16.0698 16.1249 16.4995 15.9211 16.853 15.5662C17.2089 15.2089 17.4086 14.7847 17.5249 14.1151C17.6464 13.4155 17.6681 12.5127 17.6958 11.2166C17.7131 10.4043 17.7131 9.5964 17.6958 8.78402C17.6715 7.6457 17.6515 6.81055 17.5649 6.15023L12.8813 8.80453ZM12.4018 3.57211C10.7953 3.53174 9.20467 3.53174 7.59812 3.57211C6.26756 3.60553 5.3373 3.63071 4.6196 3.7557C3.93028 3.87581 3.50042 4.07862 3.14695 4.43343C3.00269 4.57824 2.8844 4.73421 2.7866 4.91293L7.73581 7.71761C8.78189 8.31032 9.41696 8.5389 10.0005 8.5389C10.584 8.5389 11.219 8.31033 12.2651 7.71761L17.2124 4.91293C17.1146 4.73438 16.9971 4.57813 16.853 4.43343C16.4995 4.07861 16.0697 3.87581 15.3803 3.7557C14.6626 3.63071 13.7324 3.60554 12.4018 3.57211Z" fill="#0F172A"/>
</svg>

