<svg width="16" height="18" viewBox="0 0 16 18" fill="none" xmlns="http://www.w3.org/2000/svg">
<path d="M7.39519 8.67066C8.58635 8.67066 9.61783 8.24341 10.4606 7.40047C11.3034 6.5577 11.7306 5.52651 11.7306 4.33521C11.7306 3.14426 11.3034 2.11295 10.4605 1.26987C9.61755 0.427217 8.58621 0 7.39519 0C6.20386 0 5.17262 0.427217 4.32986 1.27001C3.4871 2.11281 3.05971 3.14415 3.05971 4.33521C3.05971 5.52651 3.48706 6.55785 4.33 7.40064C5.17294 8.2433 6.20428 8.67066 7.39519 8.67066ZM14.9811 13.8411C14.9567 13.4903 14.9076 13.1077 14.8352 12.7037C14.7622 12.2967 14.6681 11.9119 14.5555 11.5602C14.4392 11.1967 14.281 10.8377 14.0854 10.4937C13.8824 10.1366 13.6441 9.82571 13.3765 9.56988C13.0968 9.30224 12.7543 9.08705 12.3582 8.93004C11.9636 8.77395 11.5261 8.69485 11.0583 8.69485C10.8745 8.69485 10.6968 8.77022 10.3536 8.99367C10.1097 9.15253 9.86502 9.31026 9.61963 9.46687C9.38383 9.61713 9.0644 9.7579 8.66985 9.88534C8.28492 10.0099 7.89409 10.0731 7.50833 10.0731C7.12259 10.0731 6.73187 10.0099 6.34652 9.88534C5.95242 9.758 5.63299 9.61727 5.39745 9.46701C5.12428 9.29246 4.87714 9.13317 4.66275 8.9935C4.31998 8.77008 4.14213 8.69467 3.9584 8.69467C3.49037 8.69467 3.05313 8.77391 2.65857 8.93021C2.26279 9.08691 1.92016 9.3021 1.64014 9.57002C1.37277 9.82599 1.13424 10.1367 0.93153 10.4937C0.736133 10.8377 0.57793 11.1965 0.461458 11.5603C0.348958 11.912 0.254916 12.2967 0.181861 12.7037C0.109475 13.1072 0.0603265 13.4899 0.0359985 13.8415C0.0117978 14.1953 -0.000197581 14.5498 3.38016e-05 14.9044C3.38016e-05 15.844 0.29872 16.6047 0.887726 17.1656C1.46945 17.7192 2.23916 18.0001 3.17519 18.0001H11.8423C12.7783 18.0001 13.5478 17.7194 14.1296 17.1657C14.7188 16.6051 15.0175 15.8443 15.0175 14.9043C15.0173 14.5416 15.0051 14.1838 14.9811 13.8411Z" fill="white"/>
</svg>
