<svg width="18" height="18" viewBox="0 0 18 18" fill="none" xmlns="http://www.w3.org/2000/svg">
<path d="M16.3125 6V12C16.3125 12.7957 15.9964 13.5587 15.4338 14.1213C14.8712 14.6839 14.1081 15 13.3125 15H11.625V15.9375C11.625 16.0867 11.5657 16.2298 11.4602 16.3352C11.3548 16.4407 11.2117 16.5 11.0625 16.5C10.9133 16.5 10.7702 16.4407 10.6648 16.3352C10.5593 16.2298 10.5 16.0867 10.5 15.9375V2.0625C10.5 1.91332 10.5593 1.77024 10.6648 1.66475C10.7702 1.55926 10.9133 1.5 11.0625 1.5C11.2117 1.5 11.3548 1.55926 11.4602 1.66475C11.5657 1.77024 11.625 1.91332 11.625 2.0625V3H13.3125C14.1081 3 14.8712 3.31607 15.4338 3.87868C15.9964 4.44129 16.3125 5.20435 16.3125 6ZM9.1875 3.75V14.25C9.1875 14.4489 9.10848 14.6397 8.96783 14.7803C8.82718 14.921 8.63641 15 8.4375 15H4.6875C3.89185 15 3.12879 14.6839 2.56618 14.1213C2.00357 13.5587 1.6875 12.7957 1.6875 12V6C1.6875 5.20435 2.00357 4.44129 2.56618 3.87868C3.12879 3.31607 3.89185 3 4.6875 3H8.4375C8.63641 3 8.82718 3.07902 8.96783 3.21967C9.10848 3.36032 9.1875 3.55109 9.1875 3.75ZM4.875 9C4.87224 8.80143 4.79455 8.61123 4.6575 8.4675C4.56942 8.37985 4.46094 8.31546 4.34181 8.28011C4.22268 8.24477 4.09663 8.23957 3.975 8.265C3.928 8.27317 3.8825 8.28833 3.84 8.31C3.79202 8.32653 3.74639 8.34922 3.70425 8.3775L3.5925 8.4675C3.45513 8.61102 3.37739 8.80135 3.375 9C3.37357 9.09746 3.39114 9.19427 3.42675 9.285C3.47096 9.37438 3.52668 9.45759 3.5925 9.5325C3.66545 9.59869 3.74915 9.65195 3.84 9.69C3.9298 9.72959 4.02686 9.75004 4.125 9.75004C4.22314 9.75004 4.3202 9.72959 4.41 9.69C4.50076 9.65177 4.58443 9.59853 4.6575 9.5325C4.72353 9.45943 4.77677 9.37576 4.815 9.285C4.85343 9.19483 4.87382 9.09801 4.875 9ZM7.5 9C7.50087 8.85103 7.45735 8.70518 7.375 8.58104C7.29265 8.4569 7.17519 8.3601 7.03761 8.30297C6.90003 8.24585 6.74855 8.23099 6.60249 8.26029C6.45643 8.28959 6.3224 8.36173 6.2175 8.4675C6.1497 8.53921 6.09624 8.62321 6.06 8.715C6.00155 8.8514 5.98532 9.00219 6.0134 9.1479C6.04147 9.29362 6.11256 9.42758 6.2175 9.5325C6.29045 9.59869 6.37415 9.65195 6.465 9.69C6.55481 9.72954 6.65187 9.74997 6.75 9.74997C6.84813 9.74997 6.94519 9.72954 7.035 9.69C7.12807 9.65632 7.2126 9.60258 7.28259 9.53259C7.35258 9.4626 7.40632 9.37807 7.44 9.285C7.47843 9.19483 7.49882 9.09801 7.5 9Z" fill="white"/>
</svg>
