<svg width="17" height="17" viewBox="0 0 17 17" fill="none" xmlns="http://www.w3.org/2000/svg">
<g clip-path="url(#clip0_136_1491)">
<path d="M16.4375 15.4793L12.5262 11.568C13.4957 10.3859 14.0801 8.87187 14.0801 7.22168C14.0801 3.43652 11.0088 0.365234 7.22363 0.365234C3.43516 0.365234 0.367188 3.43652 0.367188 7.22168C0.367188 11.0068 3.43516 14.0781 7.22363 14.0781C8.87383 14.0781 10.3846 13.4971 11.5666 12.5275L15.4779 16.4355C15.7436 16.7012 16.1719 16.7012 16.4375 16.4355C16.7031 16.1732 16.7031 15.7416 16.4375 15.4793ZM7.22363 12.7135C4.19219 12.7135 1.72852 10.2498 1.72852 7.22168C1.72852 4.19355 4.19219 1.72656 7.22363 1.72656C10.2518 1.72656 12.7188 4.19355 12.7188 7.22168C12.7188 10.2498 10.2518 12.7135 7.22363 12.7135Z" fill="#BDBDBD"/>
</g>
<defs>
<clipPath id="clip0_136_1491">
<rect width="17" height="17" fill="white"/>
</clipPath>
</defs>
</svg>
