<svg width="13" height="15" viewBox="0 0 13 15" fill="none" xmlns="http://www.w3.org/2000/svg">
<path d="M4.82977 7.19121C5.0472 7.50584 4.9822 7.24367 4.9822 13.5152C4.9822 14.0764 5.6225 14.3976 6.07377 14.0619C8.00214 12.608 8.38742 12.4821 8.38742 11.802C8.38742 7.23186 8.33416 7.48887 8.53985 7.19121L11.6713 2.92875H1.69835L4.82977 7.19121ZM12.8542 0.70888C12.7423 0.494565 12.5229 0.361328 12.2813 0.361328H1.08838C0.566644 0.361328 0.259658 0.949869 0.558941 1.3775C0.561401 1.38161 0.52497 1.33174 1.1027 2.11801H12.2669C12.7593 1.44795 13.0883 1.15845 12.8542 0.70888Z" fill="white"/>
</svg>
