<svg width="19" height="19" viewBox="0 0 19 19" fill="none" xmlns="http://www.w3.org/2000/svg">
<g clip-path="url(#clip0_5043_9119)">
<path d="M15.7829 9.88638H14.3981C14.5392 10.2729 14.6164 10.6899 14.6164 11.1246V16.3586C14.6164 16.5398 14.5848 16.7138 14.5274 16.8756H16.8169C17.6721 16.8756 18.3679 16.1798 18.3679 15.3246V12.4713C18.3679 11.046 17.2083 9.88638 15.7829 9.88638ZM4.21248 11.1247C4.21248 10.6899 4.2896 10.2729 4.43076 9.88642H3.04591C1.62055 9.88642 0.460938 11.046 0.460938 12.4714V15.3246C0.460938 16.1798 1.15669 16.8756 2.01192 16.8756H4.30142C4.2425 16.7096 4.21242 16.5348 4.21248 16.3586V11.1247ZM10.9974 8.53969H7.83144C6.40609 8.53969 5.24647 9.6993 5.24647 11.1247V16.3586C5.24647 16.6441 5.47793 16.8756 5.76347 16.8756H13.0654C13.3509 16.8756 13.5824 16.6441 13.5824 16.3586V11.1247C13.5824 9.6993 12.4228 8.53969 10.9974 8.53969ZM9.41442 1.68555C7.70025 1.68555 6.30568 3.08012 6.30568 4.79433C6.30568 5.95706 6.94742 6.97255 7.89516 7.5057C8.34469 7.75857 8.86295 7.90308 9.41442 7.90308C9.9659 7.90308 10.4842 7.75857 10.9337 7.5057C11.8815 6.97255 12.5232 5.95703 12.5232 4.79433C12.5232 3.08016 11.1286 1.68555 9.41442 1.68555ZM3.95553 4.58315C2.67353 4.58315 1.63059 5.6261 1.63059 6.90809C1.63059 8.19008 2.67353 9.23302 3.95553 9.23302C4.27056 9.23329 4.58233 9.16917 4.87168 9.04458C5.35804 8.83519 5.75906 8.46453 6.0072 8.00024C6.18696 7.6643 6.28084 7.2891 6.28046 6.90809C6.28046 5.62613 5.23752 4.58315 3.95553 4.58315ZM14.8733 4.58315C13.5913 4.58315 12.5484 5.6261 12.5484 6.90809C12.548 7.2891 12.6419 7.6643 12.8216 8.00024C13.0698 8.46456 13.4708 8.83522 13.9572 9.04458C14.2465 9.16917 14.5583 9.23329 14.8733 9.23302C16.1553 9.23302 17.1983 8.19008 17.1983 6.90809C17.1983 5.6261 16.1553 4.58315 14.8733 4.58315Z" fill="white"/>
</g>
<defs>
<clipPath id="clip0_5043_9119">
<rect width="17.907" height="17.907" fill="white" transform="translate(0.464844 0.326172)"/>
</clipPath>
</defs>
</svg>
