<svg width="18" height="19" viewBox="0 0 18 19" fill="none" xmlns="http://www.w3.org/2000/svg">
<path d="M4.87903 5.54995C4.87903 3.59585 6.46902 2.00586 8.42312 2.00586C10.3772 2.00586 11.9672 3.59585 11.9672 5.54995C11.9672 7.50405 10.3772 9.09404 8.42312 9.09404C6.46902 9.09404 4.87903 7.50405 4.87903 5.54995ZM10.6615 10.2132H6.18474C3.81953 10.2132 1.89453 12.1382 1.89453 14.5034C1.89493 15.0475 2.11123 15.5692 2.49594 15.9539C2.88065 16.3386 3.40231 16.5549 3.94637 16.5553H12.8999C13.4439 16.5549 13.9656 16.3386 14.3503 15.9539C14.735 15.5692 14.9513 15.0475 14.9517 14.5034C14.9517 12.1382 13.0267 10.2132 10.6615 10.2132Z" fill="#398AC8"/>
</svg>
