<svg width="21" height="21" viewBox="0 0 21 21" fill="none" xmlns="http://www.w3.org/2000/svg">
<path d="M14.6562 3.115V1.75C14.6562 1.39125 14.3588 1.09375 14 1.09375C13.6412 1.09375 13.3438 1.39125 13.3438 1.75V3.0625H7.65625V1.75C7.65625 1.39125 7.35875 1.09375 7 1.09375C6.64125 1.09375 6.34375 1.39125 6.34375 1.75V3.115C3.98125 3.33375 2.835 4.7425 2.66 6.83375C2.6425 7.0875 2.8525 7.2975 3.0975 7.2975H17.9025C18.1562 7.2975 18.3662 7.07875 18.34 6.83375C18.165 4.7425 17.0188 3.33375 14.6562 3.115ZM17.5 8.61H3.5C3.01875 8.61 2.625 9.00375 2.625 9.485V14.875C2.625 17.5 3.9375 19.25 7 19.25H14C17.0625 19.25 18.375 17.5 18.375 14.875V9.485C18.375 9.00375 17.9812 8.61 17.5 8.61ZM8.05875 15.9338C8.015 15.9688 7.97125 16.0125 7.9275 16.0388C7.875 16.0738 7.8225 16.1 7.77 16.1175C7.7175 16.1438 7.665 16.1613 7.6125 16.17C7.55125 16.1788 7.49875 16.1875 7.4375 16.1875C7.32375 16.1875 7.21 16.1613 7.105 16.1175C6.99125 16.0738 6.90375 16.0125 6.81625 15.9338C6.65875 15.7675 6.5625 15.54 6.5625 15.3125C6.5625 15.085 6.65875 14.8575 6.81625 14.6913C6.90375 14.6125 6.99125 14.5513 7.105 14.5075C7.2625 14.4375 7.4375 14.42 7.6125 14.455C7.665 14.4638 7.7175 14.4813 7.77 14.5075C7.8225 14.525 7.875 14.5513 7.9275 14.5863L8.05875 14.6913C8.21625 14.8575 8.3125 15.085 8.3125 15.3125C8.3125 15.54 8.21625 15.7675 8.05875 15.9338ZM8.05875 12.8713C7.8925 13.0288 7.665 13.125 7.4375 13.125C7.21 13.125 6.9825 13.0288 6.81625 12.8713C6.65875 12.705 6.5625 12.4775 6.5625 12.25C6.5625 12.0225 6.65875 11.795 6.81625 11.6288C7.06125 11.3838 7.44625 11.305 7.77 11.445C7.88375 11.4888 7.98 11.55 8.05875 11.6288C8.21625 11.795 8.3125 12.0225 8.3125 12.25C8.3125 12.4775 8.21625 12.705 8.05875 12.8713ZM11.1213 15.9338C10.955 16.0913 10.7275 16.1875 10.5 16.1875C10.2725 16.1875 10.045 16.0913 9.87875 15.9338C9.72125 15.7675 9.625 15.54 9.625 15.3125C9.625 15.085 9.72125 14.8575 9.87875 14.6913C10.2025 14.3675 10.7975 14.3675 11.1213 14.6913C11.2788 14.8575 11.375 15.085 11.375 15.3125C11.375 15.54 11.2788 15.7675 11.1213 15.9338ZM11.1213 12.8713L10.99 12.9763C10.9375 13.0113 10.885 13.0375 10.8325 13.055C10.78 13.0813 10.7275 13.0988 10.675 13.1075C10.6137 13.1163 10.5613 13.125 10.5 13.125C10.2725 13.125 10.045 13.0288 9.87875 12.8713C9.72125 12.705 9.625 12.4775 9.625 12.25C9.625 12.0225 9.72125 11.795 9.87875 11.6288C9.9575 11.55 10.0538 11.4888 10.1675 11.445C10.4913 11.305 10.8763 11.3838 11.1213 11.6288C11.2788 11.795 11.375 12.0225 11.375 12.25C11.375 12.4775 11.2788 12.705 11.1213 12.8713ZM14.1837 15.9338C14.0175 16.0913 13.79 16.1875 13.5625 16.1875C13.335 16.1875 13.1075 16.0913 12.9412 15.9338C12.7837 15.7675 12.6875 15.54 12.6875 15.3125C12.6875 15.085 12.7837 14.8575 12.9412 14.6913C13.265 14.3675 13.86 14.3675 14.1837 14.6913C14.3412 14.8575 14.4375 15.085 14.4375 15.3125C14.4375 15.54 14.3412 15.7675 14.1837 15.9338ZM14.1837 12.8713L14.0525 12.9763C14 13.0113 13.9475 13.0375 13.895 13.055C13.8425 13.0813 13.79 13.0988 13.7375 13.1075C13.6762 13.1163 13.615 13.125 13.5625 13.125C13.335 13.125 13.1075 13.0288 12.9412 12.8713C12.7837 12.705 12.6875 12.4775 12.6875 12.25C12.6875 12.0225 12.7837 11.795 12.9412 11.6288C13.0288 11.55 13.1163 11.4888 13.23 11.445C13.3875 11.375 13.5625 11.3575 13.7375 11.3925C13.79 11.4013 13.8425 11.4188 13.895 11.445C13.9475 11.4625 14 11.4888 14.0525 11.5238L14.1837 11.6288C14.3412 11.795 14.4375 12.0225 14.4375 12.25C14.4375 12.4775 14.3412 12.705 14.1837 12.8713Z" fill="#103358"/>
</svg>
