<svg width="21" height="21" viewBox="0 0 21 21" fill="none" xmlns="http://www.w3.org/2000/svg">
<path d="M10.3085 19.2986C5.4775 19.2986 1.55078 15.3719 1.55078 10.5409C1.55078 5.70992 5.4775 1.7832 10.3085 1.7832C15.1395 1.7832 19.0662 5.70992 19.0662 10.5409C19.0662 15.3719 15.1395 19.2986 10.3085 19.2986ZM10.3085 3.00521C6.15367 3.00521 2.77279 6.38609 2.77279 10.5409C2.77279 14.6957 6.15367 18.0766 10.3085 18.0766C14.4633 18.0766 17.8442 14.6957 17.8442 10.5409C17.8442 6.38609 14.4633 3.00521 10.3085 3.00521Z" fill="#292D32"/>
<path d="M8.00252 13.458C7.84773 13.458 7.69295 13.4009 7.57075 13.2787C7.33449 13.0425 7.33449 12.6514 7.57075 12.4152L12.1818 7.80414C12.418 7.56789 12.8091 7.56789 13.0453 7.80414C13.2816 8.0404 13.2816 8.43144 13.0453 8.66769L8.4343 13.2787C8.32024 13.4009 8.15731 13.458 8.00252 13.458Z" fill="#292D32"/>
<path d="M12.6136 13.458C12.4588 13.458 12.304 13.4009 12.1818 13.2787L7.57075 8.66769C7.33449 8.43144 7.33449 8.0404 7.57075 7.80414C7.807 7.56789 8.19804 7.56789 8.4343 7.80414L13.0453 12.4152C13.2816 12.6514 13.2816 13.0425 13.0453 13.2787C12.9231 13.4009 12.7683 13.458 12.6136 13.458Z" fill="#292D32"/>
</svg>
