<svg width="40" height="40" viewBox="0 0 40 40" fill="none" xmlns="http://www.w3.org/2000/svg">
<path d="M20 0C9.01484 0 0 9.01484 0 20C0 30.9852 9.01484 40 20 40C30.9852 40 40 30.9852 40 20C40 9.01484 30.9852 0 20 0ZM22.3438 29.375C22.3438 30.667 21.292 31.7188 20 31.7188C18.708 31.7188 17.6562 30.667 17.6562 29.375V17.6562C17.6562 16.3642 18.708 15.3125 20 15.3125C21.292 15.3125 22.3438 16.3642 22.3438 17.6562V29.375ZM20 12.9688C18.708 12.9688 17.6562 11.917 17.6562 10.625C17.6562 9.33297 18.708 8.28125 20 8.28125C21.292 8.28125 22.3438 9.33297 22.3438 10.625C22.3438 11.917 21.292 12.9688 20 12.9688Z" fill="#398AC8"/>
</svg>
