<svg width="31" height="31" viewBox="0 0 31 31" fill="none" xmlns="http://www.w3.org/2000/svg">
<path d="M9.6368 24.5678H7.23836C3.56582 24.3055 1.91699 21.4824 1.91699 18.9716C1.91699 16.4607 3.56584 13.6251 7.17592 13.3753C7.68807 13.3253 8.13776 13.7251 8.17523 14.2497C8.21271 14.7619 7.82553 15.2116 7.30088 15.2491C4.8775 15.4239 3.79074 17.2477 3.79074 18.984C3.79074 20.7204 4.8775 22.5442 7.30088 22.719H9.6368C10.149 22.719 10.5737 23.1438 10.5737 23.6559C10.5737 24.1681 10.149 24.5678 9.6368 24.5678Z" fill="#292D32"/>
<path d="M21.1408 24.5663C21.1158 24.5663 21.1033 24.5663 21.0783 24.5663C20.5662 24.5663 20.0915 24.1415 20.0915 23.6294C20.0915 23.0922 20.4912 22.6925 21.0159 22.6925C22.5524 22.6925 23.9264 22.1554 25.0007 21.1935C26.9494 19.4947 27.0743 17.0463 26.5497 15.3225C26.025 13.6111 24.5635 11.6499 22.0152 11.3376C21.603 11.2877 21.2782 10.9754 21.2032 10.5632C20.7035 7.56517 19.0922 5.49156 16.6438 4.74206C14.1205 3.95509 11.1724 4.72957 9.33618 6.65328C7.54987 8.51453 7.13766 11.1253 8.17446 13.9984C8.34935 14.4855 8.09958 15.0227 7.6124 15.1975C7.12523 15.3724 6.58806 15.1226 6.41318 14.6354C5.15153 11.1128 5.72615 7.74005 7.98714 5.36664C10.2981 2.94327 14.0081 1.9814 17.1935 2.95575C20.1165 3.85514 22.1776 6.26603 22.9271 9.61378C25.4754 10.1884 27.524 12.1246 28.336 14.7978C29.2229 17.7084 28.4234 20.7064 26.2374 22.6051C24.8508 23.8542 23.0395 24.5663 21.1408 24.5663Z" fill="#292D32"/>
<path d="M15.3077 28.2404C12.7969 28.2404 10.4485 26.9038 9.16183 24.7427C9.02442 24.5303 8.88701 24.2805 8.77459 24.0057C8.34987 23.1188 8.125 22.107 8.125 21.0577C8.125 17.0978 11.3478 13.875 15.3077 13.875C19.2675 13.875 22.4904 17.0978 22.4904 21.0577C22.4904 22.1195 22.2655 23.1188 21.8158 24.0432C21.7159 24.2805 21.5785 24.5304 21.4286 24.7677C20.167 26.9038 17.8185 28.2404 15.3077 28.2404ZM15.3077 15.7487C12.3846 15.7487 9.99874 18.1346 9.99874 21.0577C9.99874 21.8322 10.1611 22.5567 10.4734 23.2187C10.5734 23.4311 10.6608 23.606 10.7607 23.7684C11.7101 25.3798 13.4464 26.3666 15.2952 26.3666C17.1439 26.3666 18.8803 25.3798 19.8171 23.7934C19.9296 23.606 20.0295 23.4311 20.1045 23.2562C20.4418 22.5692 20.6041 21.8446 20.6041 21.0702C20.6166 18.1346 18.2307 15.7487 15.3077 15.7487Z" fill="#292D32"/>
<path d="M14.5952 23.2306C14.3579 23.2306 14.1206 23.1432 13.9332 22.9558L12.6965 21.7191C12.3342 21.3569 12.3342 20.7573 12.6965 20.395C13.0588 20.0328 13.6583 20.0328 14.0206 20.395L14.6203 20.9946L16.6189 19.1459C17.0061 18.7961 17.5932 18.8211 17.943 19.1958C18.2928 19.5706 18.2678 20.1702 17.8931 20.52L15.2323 22.9808C15.045 23.1432 14.8201 23.2306 14.5952 23.2306Z" fill="#292D32"/>
</svg>
