<svg width="28" height="22" viewBox="0 0 28 22" fill="none" xmlns="http://www.w3.org/2000/svg">
<path fill-rule="evenodd" clip-rule="evenodd" d="M14.3395 0.0429811C12.1581 -0.0302191 10.0087 0.582533 8.19382 1.79498C6.15324 3.15923 4.6588 5.19906 3.97315 7.55598C3.78749 7.53331 3.56515 7.54331 3.30115 7.61798C2.31549 7.89798 1.57449 8.70531 1.24115 9.41665C0.808487 10.3436 0.626154 11.57 0.818487 12.8353C1.00949 14.097 1.54249 15.137 2.20915 15.7826C2.87782 16.4286 3.63282 16.6386 4.38282 16.481C5.49949 16.2426 6.05315 16.0643 5.89682 15.0243L5.14015 9.98098C5.217 8.60835 5.61193 7.27239 6.29375 6.0786C6.97556 4.88481 7.9256 3.86589 9.06882 3.10231C10.6095 2.0716 12.4346 1.54991 14.2873 1.61066C16.14 1.67141 17.927 2.31154 19.3968 3.44098C20.4116 4.21905 21.2461 5.20742 21.8431 6.3383C22.44 7.46918 22.7853 8.7158 22.8552 9.99265L22.3258 13.5203C21.7515 15.0947 20.7426 16.474 19.4161 17.4982C18.0896 18.5225 16.5 19.1496 14.8315 19.307H12.5762C12.4381 19.3067 12.3014 19.3336 12.1739 19.3863C12.0463 19.4389 11.9304 19.5162 11.8328 19.6138C11.7352 19.7113 11.6578 19.8272 11.605 19.9548C11.5523 20.0823 11.5253 20.219 11.5255 20.357V20.911C11.5252 21.049 11.5522 21.1857 11.6049 21.3133C11.6576 21.4409 11.735 21.5568 11.8327 21.6544C11.9303 21.752 12.0462 21.8293 12.1738 21.882C12.3014 21.9347 12.4381 21.9616 12.5762 21.9613H15.4198C15.5577 21.9615 15.6943 21.9345 15.8216 21.8818C15.949 21.8291 16.0648 21.7517 16.1622 21.6542C16.2596 21.5566 16.3368 21.4407 16.3893 21.3133C16.4418 21.1858 16.4686 21.0492 16.4682 20.9113V20.6213C19.0231 19.9957 21.2489 18.4313 22.7028 16.2393L23.6138 16.481C24.3552 16.6733 25.1192 16.4283 25.7875 15.7826C26.4542 15.1366 26.9868 14.097 27.1782 12.8353C27.3715 11.5696 27.1835 10.3456 26.7562 9.41665C26.3272 8.48765 25.6882 7.89765 24.9505 7.68598C24.6415 7.59698 24.3062 7.56431 24.0185 7.55598C23.3993 5.42434 22.1159 3.54597 20.3552 2.19431C18.6243 0.8656 16.5204 0.11318 14.3395 0.0429811Z" fill="white"/>
<path fill-rule="evenodd" clip-rule="evenodd" d="M17.6686 9.11638C18.0298 9.11683 18.3761 9.26055 18.6315 9.51601C18.8869 9.77147 19.0306 10.1178 19.0309 10.4791C19.0303 10.8403 18.8865 11.1865 18.6311 11.4419C18.3757 11.6973 18.0295 11.8411 17.6683 11.8417C17.3066 11.8418 16.9598 11.6983 16.7039 11.4428C16.448 11.1873 16.304 10.8407 16.3036 10.4791C16.3037 10.2999 16.339 10.1226 16.4077 9.95717C16.4763 9.79174 16.5769 9.64144 16.7036 9.51487C16.8303 9.3883 16.9807 9.28793 17.1462 9.2195C17.3118 9.15107 17.4891 9.11592 17.6683 9.11605L17.6686 9.11638ZM13.9986 9.11638C14.2681 9.11652 14.5314 9.19654 14.7554 9.34634C14.9794 9.49613 15.154 9.70898 15.257 9.95797C15.3601 10.207 15.387 10.4809 15.3343 10.7452C15.2817 11.0095 15.1519 11.2522 14.9613 11.4427C14.7708 11.6332 14.528 11.763 14.2637 11.8155C13.9994 11.8681 13.7255 11.8411 13.4765 11.738C13.2276 11.6349 13.0148 11.4603 12.865 11.2363C12.7153 11.0123 12.6353 10.7489 12.6353 10.4794C12.6351 10.3003 12.6702 10.1229 12.7387 9.95745C12.8071 9.79197 12.9075 9.6416 13.0342 9.51497C13.1608 9.38834 13.3112 9.28792 13.4767 9.21947C13.6421 9.15102 13.8195 9.11621 13.9986 9.11638ZM10.3296 9.11638C10.5111 9.11237 10.6915 9.14465 10.8604 9.21133C11.0292 9.278 11.183 9.37773 11.3128 9.50467C11.4426 9.6316 11.5457 9.78318 11.6161 9.9505C11.6865 10.1178 11.7227 10.2975 11.7227 10.4791C11.7227 10.6606 11.6865 10.8403 11.6161 11.0076C11.5457 11.1749 11.4426 11.3265 11.3128 11.4534C11.183 11.5804 11.0292 11.6801 10.8604 11.7468C10.6915 11.8135 10.5111 11.8457 10.3296 11.8417C9.97183 11.8361 9.63062 11.6901 9.37961 11.4351C9.12859 11.1801 8.9879 10.8367 8.9879 10.4789C8.9879 10.1211 9.12859 9.77764 9.37961 9.52266C9.63062 9.26769 9.97183 9.12198 10.3296 9.11638ZM13.9986 3.26172C10.0019 3.26172 6.78125 6.37639 6.78125 10.4787C6.78125 12.4491 7.52625 14.1904 8.73992 15.4681L8.30925 17.3987C8.16725 18.0341 8.60792 18.4614 9.17925 18.1434L11.0642 17.0917C11.9904 17.4927 12.9893 17.6986 13.9986 17.6964C17.9966 17.6964 21.2153 14.5837 21.2153 10.4797C21.2153 6.37705 17.9966 3.26239 13.9986 3.26239V3.26172Z" fill="white"/>
</svg>
