<svg width="20" height="20" viewBox="0 0 20 20" fill="none" xmlns="http://www.w3.org/2000/svg">
<path d="M9.77334 18.535C4.94234 18.535 1.01562 14.6082 1.01562 9.77724C1.01562 4.94625 4.94234 1.01953 9.77334 1.01953C14.6043 1.01953 18.531 4.94625 18.531 9.77724C18.531 14.6082 14.6043 18.535 9.77334 18.535ZM9.77334 2.24154C5.61852 2.24154 2.23763 5.62242 2.23763 9.77724C2.23763 13.9321 5.61852 17.313 9.77334 17.313C13.9282 17.313 17.309 13.9321 17.309 9.77724C17.309 5.62242 13.9282 2.24154 9.77334 2.24154Z" fill="#292D32"/>
<path d="M7.46834 12.6923C7.31355 12.6923 7.15877 12.6353 7.03657 12.5131C6.80031 12.2769 6.80031 11.8858 7.03657 11.6496L11.6476 7.03852C11.8839 6.80226 12.2749 6.80226 12.5112 7.03852C12.7474 7.27477 12.7474 7.66582 12.5112 7.90207L7.90012 12.5131C7.78606 12.6353 7.62313 12.6923 7.46834 12.6923Z" fill="#292D32"/>
<path d="M12.0794 12.6923C11.9246 12.6923 11.7698 12.6353 11.6476 12.5131L7.03657 7.90207C6.80031 7.66582 6.80031 7.27477 7.03657 7.03852C7.27282 6.80226 7.66386 6.80226 7.90012 7.03852L12.5112 11.6496C12.7474 11.8858 12.7474 12.2769 12.5112 12.5131C12.389 12.6353 12.2342 12.6923 12.0794 12.6923Z" fill="#292D32"/>
</svg>
