<svg width="20" height="20" viewBox="0 0 20 20" fill="none" xmlns="http://www.w3.org/2000/svg">
<path d="M9.19347 6.80068H10.529C11.0361 6.78779 11.4735 7.08535 11.4077 7.5889L10.9721 10.9033C10.897 11.4776 11.7595 11.6269 12.0464 10.9033C12.2212 10.46 13.073 10.65 12.8879 11.3411C12.7328 11.9189 11.8635 12.5425 11.3219 12.5425H10.7881C9.99191 12.5113 9.30414 11.7982 9.43036 10.9033L9.80369 8.23801L8.9968 7.99757C8.28569 7.80668 8.42947 6.77779 9.19347 6.8009V6.80068ZM10.6819 3.89446C11.263 3.89446 11.7339 4.35979 11.7339 4.93268C11.7339 5.50668 11.2628 5.97201 10.6819 5.97201C10.0997 5.97201 9.62858 5.50668 9.62858 4.93268C9.62858 4.35979 10.0997 3.89446 10.6819 3.89446ZM5.59036 1.95312C4.12147 1.95312 3.35547 5.54246 3.35547 10.0011C3.35547 14.4585 4.12147 18.0473 5.59036 18.0473H15.9992C16.8126 18.0473 16.8948 16.5947 16.0166 16.5947H7.84058C6.32547 16.5947 6.32547 14.5358 7.84058 14.5358H15.411C16.191 14.5358 16.6241 13.5505 16.6241 12.6409L16.6264 3.92112C16.6264 2.8309 15.8615 1.95357 14.9124 1.95357L5.59036 1.95312Z" fill="#103358"/>
</svg>
