<svg width="18" height="18" viewBox="0 0 18 18" fill="none" xmlns="http://www.w3.org/2000/svg">
<path d="M16.3119 7.71686L3.15163 0.194229C2.92868 0.0668584 2.67633 -9.23799e-05 2.41955 9.56687e-08C2.41441 9.56687e-08 2.40935 0.00068581 2.40429 0.00068581C2.32849 0.00164918 2.25287 0.00841178 2.17809 0.0209144C2.16858 0.022543 2.15898 0.0230572 2.14946 0.0248572L2.14998 0.025543C1.98356 0.0560757 1.82365 0.115053 1.67726 0.199886C1.45346 0.329731 1.26769 0.516087 1.13854 0.740299C1.0094 0.964511 0.941421 1.21871 0.941406 1.47746V16.5226C0.941421 16.7814 1.0094 17.0356 1.13854 17.2598C1.26769 17.484 1.45346 17.6704 1.67726 17.8002C1.82361 17.8851 1.9835 17.9441 2.14989 17.9746L2.14946 17.9752C2.15803 17.9769 2.16669 17.9774 2.17518 17.9787C2.20338 17.9835 2.23166 17.9875 2.26003 17.9905C2.27426 17.992 2.28841 17.9936 2.30263 17.9947C2.33598 17.9973 2.36923 17.9989 2.40266 17.9993C2.40832 17.9994 2.41389 18.0001 2.41955 18.0001C2.67215 18.0001 2.92475 17.9355 3.15163 17.8059L16.3119 10.2831C16.5379 10.1539 16.7258 9.96726 16.8565 9.74204C16.9871 9.51682 17.056 9.26107 17.056 9.00069V8.99932C17.0559 8.73894 16.9871 8.4832 16.8564 8.25798C16.7258 8.03277 16.5379 7.84609 16.3119 7.71686ZM11.1075 6.22294L9.79895 7.93954L6.46981 3.57189L11.1075 6.22294ZM15.6738 9.16689L6.46981 14.4281L12.2327 6.8676L15.6737 8.83449C15.703 8.85125 15.7273 8.87543 15.7443 8.90459C15.7613 8.93375 15.7702 8.96687 15.7703 9.0006C15.7702 9.03435 15.7613 9.06749 15.7443 9.09667C15.7274 9.12586 15.7031 9.15008 15.6738 9.16689Z" fill="#103358"/>
</svg>
