<svg width="91" height="67" viewBox="0 0 91 67" fill="none" xmlns="http://www.w3.org/2000/svg">
<path d="M82.0942 0.201172H8.90687C7.35799 0.201172 6.19629 1.36288 6.19629 2.91175V55.5757C6.19629 57.1246 7.35799 58.2863 8.90687 58.2863H82.0942C83.643 58.2863 84.8047 57.1246 84.8047 55.5757V2.91193C84.8047 1.36288 83.643 0.201172 82.0942 0.201172Z" fill="#637888"/>
<path d="M8.90625 55.5762V2.91243C8.90625 2.91243 8.90625 2.71875 9.09993 2.71875H82.2872C82.2872 2.71875 82.4809 2.71875 82.4809 2.91243V55.5762C82.4809 55.5762 82.4809 55.7699 82.2872 55.7699L8.90625 55.5762Z" fill="#53C2EF"/>
<path d="M0 58.2871H90.8065V64.0956H0V58.2871Z" fill="#3A5569"/>
<path d="M87.5149 66.9992H3.48511L0 64.0949H91L87.5149 66.9992ZM57.3106 60.2227H33.6894C33.1085 60.2227 32.7214 60.6098 32.7214 61.1907C32.7214 61.7715 33.1085 62.1587 33.6894 62.1587H57.3106C57.8915 62.1587 58.2786 61.7715 58.2786 61.1907C58.2788 60.6098 57.8915 60.2227 57.3106 60.2227Z" fill="#637888"/>
<rect x="14.5" y="11.5" width="63" height="37" stroke="white" stroke-dasharray="5 5"/>
<path d="M20.898 25.228V31.276C20.898 31.9387 21.0707 32.4473 21.416 32.802C21.7613 33.1473 22.2467 33.32 22.872 33.32C23.5067 33.32 23.9967 33.1473 24.342 32.802C24.6873 32.4473 24.86 31.9387 24.86 31.276V25.228H26.834V31.262C26.834 32.0927 26.652 32.7973 26.288 33.376C25.9333 33.9453 25.4527 34.3747 24.846 34.664C24.2487 34.9533 23.5813 35.098 22.844 35.098C22.116 35.098 21.4533 34.9533 20.856 34.664C20.268 34.3747 19.8013 33.9453 19.456 33.376C19.1107 32.7973 18.938 32.0927 18.938 31.262V25.228H20.898ZM35.8537 28.252C35.8537 28.7747 35.7277 29.2647 35.4757 29.722C35.2331 30.1793 34.8457 30.548 34.3137 30.828C33.7911 31.108 33.1284 31.248 32.3257 31.248H30.6877V35H28.7277V25.228H32.3257C33.0817 25.228 33.7257 25.3587 34.2577 25.62C34.7897 25.8813 35.1864 26.2407 35.4477 26.698C35.7184 27.1553 35.8537 27.6733 35.8537 28.252ZM32.2417 29.666C32.7831 29.666 33.1844 29.5447 33.4457 29.302C33.7071 29.05 33.8377 28.7 33.8377 28.252C33.8377 27.3 33.3057 26.824 32.2417 26.824H30.6877V29.666H32.2417ZM39.2053 33.446H42.4253V35H37.2453V25.228H39.2053V33.446ZM48.2071 35.098C47.2924 35.098 46.4524 34.8833 45.6871 34.454C44.9217 34.0247 44.3151 33.432 43.8671 32.676C43.4191 31.9107 43.1951 31.0473 43.1951 30.086C43.1951 29.134 43.4191 28.28 43.8671 27.524C44.3151 26.7587 44.9217 26.1613 45.6871 25.732C46.4524 25.3027 47.2924 25.088 48.2071 25.088C49.1311 25.088 49.9711 25.3027 50.7271 25.732C51.4924 26.1613 52.0944 26.7587 52.5331 27.524C52.9811 28.28 53.2051 29.134 53.2051 30.086C53.2051 31.0473 52.9811 31.9107 52.5331 32.676C52.0944 33.432 51.4924 34.0247 50.7271 34.454C49.9617 34.8833 49.1217 35.098 48.2071 35.098ZM48.2071 33.348C48.7951 33.348 49.3131 33.2173 49.7611 32.956C50.2091 32.6853 50.5591 32.3027 50.8111 31.808C51.0631 31.3133 51.1891 30.7393 51.1891 30.086C51.1891 29.4327 51.0631 28.8633 50.8111 28.378C50.5591 27.8833 50.2091 27.5053 49.7611 27.244C49.3131 26.9827 48.7951 26.852 48.2071 26.852C47.6191 26.852 47.0964 26.9827 46.6391 27.244C46.1911 27.5053 45.8411 27.8833 45.5891 28.378C45.3371 28.8633 45.2111 29.4327 45.2111 30.086C45.2111 30.7393 45.3371 31.3133 45.5891 31.808C45.8411 32.3027 46.1911 32.6853 46.6391 32.956C47.0964 33.2173 47.6191 33.348 48.2071 33.348ZM60.6553 33.138H56.7633L56.1193 35H54.0613L57.5753 25.214H59.8573L63.3713 35H61.2993L60.6553 33.138ZM60.1233 31.57L58.7093 27.482L57.2953 31.57H60.1233ZM68.1008 25.228C69.1274 25.228 70.0281 25.4287 70.8028 25.83C71.5868 26.2313 72.1888 26.8053 72.6088 27.552C73.0381 28.2893 73.2528 29.148 73.2528 30.128C73.2528 31.108 73.0381 31.9667 72.6088 32.704C72.1888 33.432 71.5868 33.9967 70.8028 34.398C70.0281 34.7993 69.1274 35 68.1008 35H64.6848V25.228H68.1008ZM68.0308 33.334C69.0574 33.334 69.8508 33.054 70.4108 32.494C70.9708 31.934 71.2508 31.1453 71.2508 30.128C71.2508 29.1107 70.9708 28.3173 70.4108 27.748C69.8508 27.1693 69.0574 26.88 68.0308 26.88H66.6448V33.334H68.0308Z" fill="white"/>
</svg>
