<svg width="91" height="91" viewBox="0 0 91 91" fill="none" xmlns="http://www.w3.org/2000/svg">
<path d="M82.0942 24.2012H8.90687C7.35799 24.2012 6.19629 25.3629 6.19629 26.9118V79.5757C6.19629 81.1246 7.35799 82.2863 8.90687 82.2863H82.0942C83.643 82.2863 84.8047 81.1246 84.8047 79.5757V26.9119C84.8047 25.3629 83.643 24.2012 82.0942 24.2012Z" fill="#637888"/>
<path d="M8.90625 79.5762V26.9124C8.90625 26.9124 8.90625 26.7188 9.09993 26.7188H82.2872C82.2872 26.7188 82.4809 26.7188 82.4809 26.9124V79.5762C82.4809 79.5762 82.4809 79.7699 82.2872 79.7699L8.90625 79.5762Z" fill="#53C2EF"/>
<path d="M0 82.2871H90.8065V88.0956H0V82.2871Z" fill="#3A5569"/>
<path d="M87.5149 90.9992H3.48511L0 88.0949H91L87.5149 90.9992ZM57.3106 84.2227H33.6894C33.1085 84.2227 32.7214 84.6098 32.7214 85.1907C32.7214 85.7715 33.1085 86.1587 33.6894 86.1587H57.3106C57.8915 86.1587 58.2786 85.7715 58.2786 85.1907C58.2788 84.6098 57.8915 84.2227 57.3106 84.2227Z" fill="#637888"/>
<path d="M57.3102 0H22.2656V59.8277H68.7337V11.4234L57.3102 0Z" fill="#E0E0DF"/>
<path d="M57.3105 11.4234H68.7341L57.3105 0V11.4234Z" fill="#B4BFBF"/>
<path d="M32.334 20.5234H58.8595V21.8788H32.334V20.5234Z" fill="#8A9AA3"/>
<path d="M32.334 13.3594H48.2107V14.7148H32.334V13.3594Z" fill="#F16D6E"/>
<path d="M32.334 27.6875H58.8595V29.0429H32.334V27.6875ZM32.334 34.8514H58.8595V36.2068H32.334V34.8514ZM32.334 41.8216H58.8595V43.177H32.334V41.8216ZM32.334 48.9855H58.8595V50.3409H32.334V48.9855Z" fill="#8A9AA3"/>
<path d="M60.4082 61.7637L66.023 75.8976L68.153 69.3147L74.7358 67.1848L60.4082 61.7637Z" fill="#3A5569"/>
</svg>
