<svg width="91" height="67" viewBox="0 0 91 67" fill="none" xmlns="http://www.w3.org/2000/svg">
<path d="M82.0942 0.201172H8.90687C7.35799 0.201172 6.19629 1.36288 6.19629 2.91175V55.5757C6.19629 57.1246 7.35799 58.2863 8.90687 58.2863H82.0942C83.643 58.2863 84.8047 57.1246 84.8047 55.5757V2.91193C84.8047 1.36288 83.643 0.201172 82.0942 0.201172Z" fill="#637888"/>
<path d="M8.90625 55.5762V2.91243C8.90625 2.91243 8.90625 2.71875 9.09993 2.71875H82.2872C82.2872 2.71875 82.4809 2.71875 82.4809 2.91243V55.5762C82.4809 55.5762 82.4809 55.7699 82.2872 55.7699L8.90625 55.5762Z" fill="#53C2EF"/>
<path d="M0 58.2871H90.8065V64.0956H0V58.2871Z" fill="#3A5569"/>
<path d="M87.5149 66.9992H3.48511L0 64.0949H91L87.5149 66.9992ZM57.3106 60.2227H33.6894C33.1085 60.2227 32.7214 60.6098 32.7214 61.1907C32.7214 61.7715 33.1085 62.1587 33.6894 62.1587H57.3106C57.8915 62.1587 58.2786 61.7715 58.2786 61.1907C58.2788 60.6098 57.8915 60.2227 57.3106 60.2227Z" fill="#637888"/>
<g clip-path="url(#clip0_102_169)">
<path d="M38.4173 13.4147C37.4544 14.3768 36.8877 15.6652 36.8294 17.0251C36.7711 18.385 37.2255 19.7173 38.1025 20.7582C38.9795 21.7991 40.2154 22.4729 41.5655 22.6461C42.9155 22.8194 44.2815 22.4795 45.3929 21.6938L45.3926 22.4613C45.3926 22.5718 45.4365 22.6777 45.5146 22.7559L49.6244 26.8657C49.7717 27.013 49.9466 27.1299 50.1391 27.2096C50.3316 27.2893 50.538 27.3304 50.7463 27.3304C50.9547 27.3304 51.161 27.2893 51.3535 27.2096C51.546 27.1299 51.7209 27.013 51.8683 26.8657C52.0156 26.7183 52.1325 26.5434 52.2122 26.3509C52.2919 26.1584 52.333 25.9521 52.333 25.7437C52.333 25.5353 52.2919 25.329 52.2122 25.1365C52.1325 24.944 52.0156 24.7691 51.8683 24.6218L47.7582 20.5117C47.6801 20.4336 47.5741 20.3897 47.4636 20.3897L46.6961 20.39C47.4811 19.2786 47.8204 17.913 47.6469 16.5633C47.4733 15.2137 46.7997 13.9784 45.7591 13.1016C44.7185 12.2248 43.3867 11.7705 42.0272 11.8285C40.6677 11.8865 39.3795 12.4525 38.4173 13.4147ZM51.2787 25.2107C51.3487 25.2807 51.4042 25.3637 51.442 25.4551C51.4799 25.5465 51.4994 25.6445 51.4994 25.7434C51.4994 25.8423 51.4799 25.9403 51.442 26.0317C51.4042 26.1231 51.3487 26.2061 51.2787 26.2761C51.2088 26.3461 51.1257 26.4015 51.0343 26.4394C50.9429 26.4773 50.845 26.4967 50.746 26.4967C50.6471 26.4967 50.5491 26.4773 50.4577 26.4394C50.3663 26.4015 50.2833 26.3461 50.2133 26.2761L46.2258 22.2886L46.2261 21.2235L47.2912 21.2232L51.2787 25.2107ZM45.5149 20.5123C44.8713 21.1559 44.0513 21.5942 43.1586 21.7718C42.2658 21.9494 41.3405 21.8582 40.4996 21.5099C39.6587 21.1616 38.9399 20.5717 38.4342 19.8149C37.9286 19.0581 37.6587 18.1683 37.6587 17.2581C37.6587 16.3479 37.9286 15.4582 38.4342 14.7014C38.9399 13.9445 39.6587 13.3547 40.4996 13.0064C41.3405 12.658 42.2658 12.5669 43.1586 12.7445C44.0513 12.922 44.8713 13.3604 45.5149 14.004C46.3766 14.8677 46.8606 16.038 46.8606 17.2581C46.8606 18.4782 46.3766 19.6485 45.5149 20.5123Z" fill="white"/>
<path d="M39.3223 14.3203C39.2441 14.3985 39.2002 14.5044 39.2002 14.6149C39.2002 14.7255 39.2441 14.8314 39.3223 14.9096C39.4004 14.9877 39.5064 15.0316 39.6169 15.0316C39.7274 15.0316 39.8334 14.9877 39.9115 14.9096C40.5349 14.2875 41.3796 13.9381 42.2603 13.9381C43.141 13.9381 43.9857 14.2875 44.6091 14.9096C44.6872 14.9877 44.7932 15.0316 44.9037 15.0316C45.0142 15.0316 45.1202 14.9877 45.1983 14.9096C45.2765 14.8314 45.3204 14.7255 45.3204 14.6149C45.3204 14.5044 45.2765 14.3985 45.1983 14.3203C44.4185 13.5422 43.3619 13.1052 42.2603 13.1052C41.1587 13.1052 40.1021 13.5422 39.3223 14.3203ZM43.0399 15.8895L40.8912 18.0382C40.813 18.1164 40.7691 18.2223 40.7691 18.3329C40.7691 18.4434 40.813 18.5493 40.8912 18.6275C40.9693 18.7056 41.0753 18.7495 41.1858 18.7495C41.2963 18.7495 41.4023 18.7056 41.4804 18.6275L43.6291 16.4788C43.7073 16.4006 43.7512 16.2946 43.7512 16.1841C43.7512 16.0736 43.7073 15.9676 43.6291 15.8895C43.551 15.8114 43.445 15.7675 43.3345 15.7675C43.224 15.7675 43.118 15.8114 43.0399 15.8895Z" fill="white"/>
</g>
<path d="M25.006 41L22.85 37.192H21.926V41H19.966V31.228H23.634C24.39 31.228 25.034 31.3633 25.566 31.634C26.098 31.8953 26.4947 32.2547 26.756 32.712C27.0267 33.16 27.162 33.664 27.162 34.224C27.162 34.868 26.9753 35.4513 26.602 35.974C26.2287 36.4873 25.6733 36.842 24.936 37.038L27.274 41H25.006ZM21.926 35.722H23.564C24.096 35.722 24.4927 35.596 24.754 35.344C25.0153 35.0827 25.146 34.7233 25.146 34.266C25.146 33.818 25.0153 33.4727 24.754 33.23C24.4927 32.978 24.096 32.852 23.564 32.852H21.926V35.722ZM30.8948 32.81V35.26H34.1848V36.814H30.8948V39.404H34.6048V41H28.9348V31.214H34.6048V32.81H30.8948ZM45.1639 31.228L41.5799 41H39.1999L35.6159 31.228H37.7159L40.4039 38.998L43.0779 31.228H45.1639ZM48.299 31.228V41H46.339V31.228H48.299ZM52.1955 32.81V35.26H55.4855V36.814H52.1955V39.404H55.9055V41H50.2355V31.214H55.9055V32.81H52.1955ZM70.7487 31.228L68.0187 41H65.7087L63.8747 34.042L61.9567 41L59.6607 41.014L57.0287 31.228H59.1287L60.8507 38.816L62.8387 31.228H65.0227L66.8987 38.774L68.6347 31.228H70.7487Z" fill="white"/>
<defs>
<clipPath id="clip0_102_169">
<rect width="20" height="20" fill="white" transform="translate(31 20.1406) rotate(-45)"/>
</clipPath>
</defs>
</svg>
