<svg width="28" height="22" viewBox="0 0 28 22" fill="none" xmlns="http://www.w3.org/2000/svg">
<path fill-rule="evenodd" clip-rule="evenodd" d="M14.3395 0.0449342C12.1581 -0.028266 10.0087 0.584486 8.19382 1.79693C6.15324 3.16118 4.6588 5.20102 3.97315 7.55793C3.78749 7.53527 3.56515 7.54527 3.30115 7.61993C2.31549 7.89993 1.57449 8.70727 1.24115 9.4186C0.808487 10.3456 0.626154 11.5719 0.818487 12.8373C1.00949 14.0989 1.54249 15.1389 2.20915 15.7846C2.87782 16.4306 3.63282 16.6406 4.38282 16.4829C5.49949 16.2446 6.05315 16.0663 5.89682 15.0263L5.14015 9.98293C5.217 8.61031 5.61193 7.27434 6.29375 6.08056C6.97556 4.88677 7.9256 3.86785 9.06882 3.10427C10.6095 2.07355 12.4346 1.55186 14.2873 1.61261C16.14 1.67336 17.927 2.3135 19.3968 3.44293C20.4116 4.221 21.2461 5.20937 21.8431 6.34025C22.44 7.47113 22.7853 8.71775 22.8552 9.9946L22.3258 13.5223C21.7515 15.0967 20.7426 16.476 19.4161 17.5002C18.0896 18.5244 16.5 19.1516 14.8315 19.3089H12.5762C12.4381 19.3086 12.3014 19.3356 12.1739 19.3882C12.0463 19.4409 11.9304 19.5182 11.8328 19.6157C11.7352 19.7133 11.6578 19.8292 11.605 19.9567C11.5523 20.0842 11.5253 20.2209 11.5255 20.3589V20.9129C11.5252 21.051 11.5522 21.1877 11.6049 21.3153C11.6576 21.4428 11.735 21.5587 11.8327 21.6563C11.9303 21.7539 12.0462 21.8313 12.1738 21.8839C12.3014 21.9366 12.4381 21.9636 12.5762 21.9633H15.4198C15.5577 21.9635 15.6943 21.9365 15.8216 21.8838C15.949 21.831 16.0648 21.7537 16.1622 21.6561C16.2596 21.5586 16.3368 21.4427 16.3893 21.3152C16.4418 21.1877 16.4686 21.0511 16.4682 20.9133V20.6233C19.0231 19.9977 21.2489 18.4333 22.7028 16.2413L23.6138 16.4829C24.3552 16.6753 25.1192 16.4303 25.7875 15.7846C26.4542 15.1386 26.9868 14.0989 27.1782 12.8373C27.3715 11.5716 27.1835 10.3476 26.7562 9.4186C26.3272 8.4896 25.6882 7.8996 24.9505 7.68793C24.6415 7.59894 24.3062 7.56627 24.0185 7.55793C23.3993 5.42629 22.1159 3.54792 20.3552 2.19627C18.6243 0.867553 16.5204 0.115133 14.3395 0.0449342Z" fill="white"/>
<path fill-rule="evenodd" clip-rule="evenodd" d="M17.6686 9.11834C18.0298 9.11878 18.3761 9.2625 18.6315 9.51796C18.8869 9.77343 19.0306 10.1198 19.0309 10.481C19.0303 10.8422 18.8865 11.1885 18.6311 11.4439C18.3757 11.6993 18.0295 11.8431 17.6683 11.8437C17.3066 11.8438 16.9598 11.7003 16.7039 11.4448C16.448 11.1893 16.304 10.8426 16.3036 10.481C16.3037 10.3019 16.339 10.1246 16.4077 9.95913C16.4763 9.79369 16.5769 9.6434 16.7036 9.51683C16.8303 9.39025 16.9807 9.28989 17.1462 9.22146C17.3118 9.15303 17.4891 9.11787 17.6683 9.118L17.6686 9.11834ZM13.9986 9.11834C14.2681 9.11847 14.5314 9.19849 14.7554 9.34829C14.9794 9.49809 15.154 9.71093 15.257 9.95992C15.3601 10.2089 15.387 10.4829 15.3343 10.7471C15.2817 11.0114 15.1519 11.2542 14.9613 11.4447C14.7708 11.6352 14.528 11.7649 14.2637 11.8175C13.9994 11.8701 13.7255 11.8431 13.4765 11.74C13.2276 11.6369 13.0148 11.4623 12.865 11.2382C12.7153 11.0142 12.6353 10.7508 12.6353 10.4813C12.6351 10.3023 12.6702 10.1249 12.7387 9.95941C12.8071 9.79392 12.9075 9.64356 13.0342 9.51693C13.1608 9.39029 13.3112 9.28988 13.4767 9.22143C13.6421 9.15297 13.8195 9.11816 13.9986 9.11834ZM10.3296 9.11834C10.5111 9.11432 10.6915 9.1466 10.8604 9.21328C11.0292 9.27996 11.183 9.37969 11.3128 9.50662C11.4426 9.63355 11.5457 9.78513 11.6161 9.95245C11.6865 10.1198 11.7227 10.2995 11.7227 10.481C11.7227 10.6625 11.6865 10.8422 11.6161 11.0096C11.5457 11.1769 11.4426 11.3285 11.3128 11.4554C11.183 11.5823 11.0292 11.6821 10.8604 11.7487C10.6915 11.8154 10.5111 11.8477 10.3296 11.8437C9.97183 11.8381 9.63062 11.692 9.37961 11.4371C9.12859 11.1821 8.9879 10.8386 8.9879 10.4808C8.9879 10.123 9.12859 9.77959 9.37961 9.52462C9.63062 9.26964 9.97183 9.12393 10.3296 9.11834ZM13.9986 3.26367C10.0019 3.26367 6.78125 6.37834 6.78125 10.4807C6.78125 12.451 7.52625 14.1923 8.73992 15.47L8.30925 17.4007C8.16725 18.036 8.60792 18.4633 9.17925 18.1453L11.0642 17.0937C11.9904 17.4947 12.9893 17.7005 13.9986 17.6983C17.9966 17.6983 21.2153 14.5857 21.2153 10.4817C21.2153 6.379 17.9966 3.26434 13.9986 3.26434V3.26367Z" fill="white"/>
</svg>
