<svg width="50" height="50" viewBox="0 0 50 50" fill="none" xmlns="http://www.w3.org/2000/svg">
<path fill-rule="evenodd" clip-rule="evenodd" d="M15.7211 25.0461C17.6078 24.6019 19.3897 23.7681 21.0048 22.7046L21.4447 22.4148C21.6112 22.3052 21.7824 22.2539 21.9817 22.2539H28.0171C28.2165 22.2539 28.3876 22.3052 28.5541 22.4148L28.994 22.7046C30.6091 23.7682 32.391 24.6019 34.2777 25.0461L35.6327 25.3651C36.0792 25.4702 36.3855 25.857 36.3855 26.3157V35.324C36.3855 41.0281 31.0253 46.3719 25.8961 48.1525L25.3196 48.3526C25.1034 48.4277 24.8952 48.4277 24.6791 48.3526L24.1026 48.1525C18.9733 46.3719 13.6133 41.0281 13.6133 35.324V26.3157C13.6133 25.857 13.9195 25.4703 14.366 25.3651L15.7211 25.0461Z" fill="#4FC0E8"/>
<path fill-rule="evenodd" clip-rule="evenodd" d="M16.3477 28.09V35.3241C16.3477 39.7041 20.8048 44.0362 24.8317 45.5097C24.9397 45.5509 25.0591 45.5509 25.1672 45.5097C29.1941 44.0362 33.6512 39.7041 33.6512 35.3241V28.09C33.6512 27.8645 33.5037 27.674 33.2855 27.6173C31.2716 27.0953 29.3631 26.205 27.6108 25.0671C27.5321 25.0146 27.4394 24.9871 27.3448 24.9883H22.654C22.5554 24.9883 22.4708 25.0134 22.3881 25.0671C20.6358 26.2049 18.7274 27.0953 16.7135 27.6173C16.6083 27.6436 16.5151 27.7046 16.4487 27.7903C16.3824 27.876 16.3468 27.9816 16.3477 28.09Z" fill="#66D4F1"/>
<path fill-rule="evenodd" clip-rule="evenodd" d="M29.7809 31.6237C29.9213 31.5115 30.1004 31.4593 30.2791 31.4785C30.4578 31.4977 30.6217 31.5867 30.7351 31.7262C30.8484 31.8656 30.9021 32.0442 30.8845 32.2231C30.8668 32.4019 30.7792 32.5666 30.6407 32.6811L22.9376 38.9363C22.8633 38.9967 22.7772 39.0407 22.6848 39.0656C22.5924 39.0905 22.4958 39.0956 22.4012 39.0807C22.3067 39.0657 22.2164 39.031 22.1362 38.9789C22.0559 38.9267 21.9876 38.8582 21.9356 38.7779L19.2194 34.7325C19.1218 34.5823 19.0873 34.3998 19.1233 34.2244C19.1592 34.049 19.2628 33.8947 19.4116 33.7951C19.5604 33.6954 19.7424 33.6583 19.9183 33.6918C20.0942 33.7253 20.2499 33.8267 20.3516 33.9741L22.6574 37.4082L29.7809 31.6237Z" fill="#F4F6F8"/>
<path fill-rule="evenodd" clip-rule="evenodd" d="M12.2773 18.1175V18.1185H37.7183V18.1175C37.7183 12.3859 33.9257 7.53975 28.7124 5.95049V4.4958C28.7124 2.89521 27.407 1.58984 25.8064 1.58984H24.1892C22.5887 1.58984 21.2833 2.89521 21.2833 4.4958V5.95049C16.07 7.53984 12.2773 12.386 12.2773 18.1175Z" fill="#FDCD56"/>
<path fill-rule="evenodd" clip-rule="evenodd" d="M30.0806 6.45635C29.6349 6.26177 29.1785 6.0931 28.7134 5.95117V11.2195C28.7134 11.4008 28.7854 11.5747 28.9136 11.7029C29.0418 11.8311 29.2157 11.9031 29.397 11.9031C29.5783 11.9031 29.7521 11.8311 29.8803 11.7029C30.0085 11.5747 30.0806 11.4008 30.0806 11.2195V6.45635ZM21.2843 5.95117C20.8192 6.09313 20.3627 6.26184 19.9171 6.45645V11.2195C19.9171 11.4008 19.9891 11.5747 20.1173 11.7029C20.2455 11.8311 20.4194 11.9031 20.6007 11.9031C20.782 11.9031 20.9559 11.8311 21.0841 11.7029C21.2123 11.5747 21.2843 11.4008 21.2843 11.2195V5.95117ZM10.9766 15.9659H39.0212C39.5591 15.9659 39.9978 16.4046 39.9978 16.9425V19.0775C39.9978 19.6153 39.5591 20.054 39.0212 20.054H10.9766C10.4387 20.054 10 19.6153 10 19.0775V16.9425C10.0001 16.4046 10.4388 15.9659 10.9766 15.9659Z" fill="#F5B945"/>
</svg>
