<svg width="82" height="82" viewBox="0 0 82 82" fill="none" xmlns="http://www.w3.org/2000/svg">
<path opacity="0.6" d="M40.9987 75.1673C59.8684 75.1673 75.1654 59.8704 75.1654 41.0006C75.1654 22.1309 59.8684 6.83398 40.9987 6.83398C22.129 6.83398 6.83203 22.1309 6.83203 41.0006C6.83203 59.8704 22.129 75.1673 40.9987 75.1673Z" fill="#B8FF2F"/>
<path d="M36.1489 53.2311C35.4656 53.2311 34.8164 52.9578 34.3381 52.4795L24.6689 42.8103C23.6781 41.8195 23.6781 40.1795 24.6689 39.1886C25.6597 38.1978 27.2997 38.1978 28.2906 39.1886L36.1489 47.047L53.7106 29.4853C54.7014 28.4945 56.3414 28.4945 57.3322 29.4853C58.3231 30.4761 58.3231 32.1161 57.3322 33.107L37.9597 52.4795C37.4814 52.9578 36.8322 53.2311 36.1489 53.2311Z" fill="#040404"/>
</svg>
