<svg width="69" height="60" viewBox="0 0 69 60" fill="none" xmlns="http://www.w3.org/2000/svg">
<path d="M46.0986 5.70117C46.5854 5.70117 46.9803 6.09627 46.9805 6.58301C46.9805 7.06987 46.5855 7.46484 46.0986 7.46484C41.9863 7.46495 38.2956 10.2157 37.124 14.1523C36.9953 14.5864 36.5607 14.848 36.123 14.7686L36.1191 14.7734L36.0273 14.7461C35.5609 14.607 35.2945 14.1162 35.4336 13.6494C36.7973 9.06679 41.0446 5.70127 46.0986 5.70117Z" fill="#398AC8" stroke="#F9FFF9" stroke-width="0.3"/>
<path d="M56.3438 42.4384H51.9534C51.5494 42.4384 51.2217 42.1107 51.2217 41.7067C51.2217 41.3027 51.5494 40.9749 51.9534 40.9749H56.3438C62.3956 40.9749 67.3197 36.0509 67.3197 29.999C67.3197 23.9471 62.3956 19.023 56.3438 19.023H56.2382C56.026 19.023 55.8242 18.9311 55.6852 18.7706C55.5462 18.6101 55.4834 18.3974 55.5138 18.1873C55.5791 17.7315 55.612 17.2737 55.612 16.8279C55.612 11.5829 51.3444 7.31531 46.0995 7.31531C44.059 7.31531 42.1131 7.95296 40.4719 9.15978C40.1112 9.42478 39.599 9.30718 39.3905 8.91047C34.7425 0.0596993 22.6023 -1.12887 16.3082 6.57053C13.6568 9.81417 12.615 14.0336 13.4498 18.146C13.5418 18.6002 13.1942 19.0236 12.7327 19.0236H12.4395C6.3876 19.0236 1.46353 23.9477 1.46353 29.9996C1.46353 36.0514 6.3876 40.9755 12.4395 40.9755H16.8298C17.2338 40.9755 17.5615 41.3032 17.5615 41.7072C17.5615 42.1113 17.2338 42.439 16.8298 42.439H12.4395C5.5805 42.439 0 36.8585 0 29.9995C0 23.3329 5.27155 17.8742 11.8651 17.5731C11.2457 13.3066 12.4301 9.00295 15.1751 5.64437C21.9138 -2.5996 34.828 -1.67556 40.2871 7.51707C42.0287 6.42522 44.0215 5.85244 46.0992 5.85244C52.4538 5.85244 57.4892 11.261 57.0486 17.58C63.5813 17.9463 68.7829 23.3763 68.7829 29.999C68.7829 36.8585 63.2024 42.4384 56.3434 42.4384L56.3438 42.4384Z" fill="#398AC8"/>
<path d="M34.2939 22.8496C44.4637 22.8499 52.7373 31.1242 52.7373 41.2939C52.7371 51.4634 44.4635 59.7371 34.2939 59.7373C24.1243 59.7373 15.8499 51.4637 15.8496 41.2939C15.8496 31.1241 24.124 22.8496 34.2939 22.8496ZM34.2939 24.6143C25.0969 24.6143 17.6143 32.097 17.6143 41.2939C17.6145 50.4908 25.0972 57.9736 34.2939 57.9736C43.4905 57.9734 50.9734 50.4905 50.9736 41.2939C50.9736 32.0971 43.4906 24.6145 34.2939 24.6143Z" fill="#398AC8" stroke="#F9FFF9" stroke-width="0.3"/>
<path d="M34.626 34.043C35.0044 34.0432 35.3115 34.351 35.3115 34.7295V48.6572C35.3115 49.0362 35.0043 49.3435 34.626 49.3438C34.2474 49.3438 33.9395 49.0359 33.9395 48.6572V34.7295C33.9395 34.3509 34.2473 34.043 34.626 34.043Z" fill="#398AC8" stroke="#483EA8" stroke-width="0.3"/>
<path d="M34.1416 34.2461C34.4092 33.9784 34.8436 33.9784 35.1113 34.2461L39.3965 38.5322C39.6643 38.8001 39.6643 39.2341 39.3965 39.502L39.3955 39.501C39.2617 39.6351 39.0867 39.7021 38.9121 39.7021C38.737 39.7021 38.5605 39.6356 38.4268 39.502L34.626 35.7002L30.8252 39.502C30.5576 39.7696 30.1232 39.7696 29.8555 39.502C29.5877 39.2342 29.5878 38.8001 29.8555 38.5322L34.1416 34.2461Z" fill="#398AC8" stroke="#483EA8" stroke-width="0.3"/>
</svg>
