<svg width="21" height="22" viewBox="0 0 21 22" fill="none" xmlns="http://www.w3.org/2000/svg">
<path d="M10.5 14.9375C10.4139 14.9376 10.3285 14.9207 10.2489 14.8877C10.1692 14.8547 10.0969 14.8063 10.0361 14.7453L3.47357 8.18276C3.21714 7.92633 3.21714 7.51109 3.47357 7.25482C3.73 6.99856 4.14524 6.99839 4.40151 7.25482L10.5 13.3534L16.5986 7.25482C16.855 6.99839 17.2702 6.99839 17.5265 7.25482C17.7828 7.51125 17.7829 7.92649 17.5265 8.18276L10.964 14.7453C10.9031 14.8063 10.8308 14.8547 10.7512 14.8877C10.6716 14.9207 10.5862 14.9376 10.5 14.9375Z" fill="#103358"/>
</svg>
