<svg width="26" height="26" viewBox="0 0 26 26" fill="none" xmlns="http://www.w3.org/2000/svg">
<path d="M23.6766 0V21.3399L4.65426 23.4157L2.32422 23.67V2.33005C2.32422 1.6866 2.58473 1.10383 3.00641 0.682145C3.4281 0.260457 4.01082 0 4.65426 0H23.6766Z" fill="#277FC0"/>
<path d="M4.65427 0V23.4157L2.32422 23.67V2.33005C2.32422 1.6866 2.58473 1.10383 3.00641 0.682145C3.4281 0.260457 4.01082 0 4.65427 0Z" fill="#333333"/>
<path d="M23.6768 21.3401H4.65416C3.36737 21.3401 2.32422 22.3832 2.32422 23.67C2.32422 24.9568 3.36737 26 4.65416 26H23.6768V24.6921L22.7288 23.67L23.6768 22.6479V21.3401Z" fill="#333333"/>
<path d="M4.65494 24.6921C4.09132 24.6921 3.63281 24.2336 3.63281 23.67C3.63281 23.1063 4.09132 22.6478 4.65494 22.6478H23.6775V24.6921H4.65494Z" fill="#DFEAEF"/>
<path d="M10.7157 5.05177L9.02193 3.31332L7.32812 5.05177V0H10.7157V5.05177Z" fill="#F2F2F2"/>
<path d="M18.0982 6.51233H9.06556C8.15993 6.51233 7.42578 7.24647 7.42578 8.15211V13.1556C7.42578 14.0613 8.15993 14.7954 9.06556 14.7954H18.0982C19.0039 14.7954 19.738 14.0613 19.738 13.1556V8.15211C19.738 7.24647 19.0039 6.51233 18.0982 6.51233Z" fill="#DFEAEF"/>
<path d="M18.1 15.1878H9.06732C7.94678 15.1878 7.03516 14.2762 7.03516 13.1556V8.15211C7.03516 7.03162 7.94678 6.12 9.06732 6.12H18.1C19.2205 6.12 20.1322 7.03162 20.1322 8.15211V13.1556C20.1322 14.2762 19.2205 15.1878 18.1 15.1878ZM9.06732 6.90472C8.37949 6.90472 7.81988 7.46433 7.81988 8.15211V13.1556C7.81988 13.8435 8.37949 14.4031 9.06732 14.4031H18.1C18.7878 14.4031 19.3474 13.8435 19.3474 13.1556V8.15211C19.3474 7.46428 18.7878 6.90472 18.1 6.90472H9.06732Z" fill="#333333"/>
<path d="M17.2706 10.0068H9.90015C9.79609 10.0068 9.6963 9.9655 9.62273 9.89193C9.54915 9.81835 9.50781 9.71856 9.50781 9.6145C9.50781 9.51045 9.54915 9.41066 9.62273 9.33708C9.6963 9.2635 9.79609 9.22217 9.90015 9.22217H17.2706C17.3746 9.22217 17.4744 9.2635 17.548 9.33708C17.6216 9.41066 17.6629 9.51045 17.6629 9.6145C17.6629 9.66603 17.6528 9.71705 17.6331 9.76465C17.6134 9.81225 17.5845 9.85551 17.5481 9.89194C17.5116 9.92837 17.4684 9.95727 17.4208 9.97699C17.3732 9.9967 17.3222 10.0068 17.2706 10.0068ZM17.2706 12.0856H9.90015C9.79609 12.0856 9.6963 12.0443 9.62273 11.9707C9.54915 11.8971 9.50781 11.7973 9.50781 11.6933C9.50781 11.5892 9.54915 11.4894 9.62273 11.4159C9.6963 11.3423 9.79609 11.3009 9.90015 11.3009H17.2706C17.3746 11.3009 17.4744 11.3423 17.548 11.4158C17.6216 11.4894 17.6629 11.5892 17.663 11.6933C17.663 11.7973 17.6216 11.8971 17.5481 11.9707C17.4745 12.0443 17.3747 12.0856 17.2706 12.0856Z" fill="#665E66"/>
</svg>
