<svg width="16" height="15" viewBox="0 0 16 15" fill="none" xmlns="http://www.w3.org/2000/svg">
<g clip-path="url(#clip0_4588_44359)">
<path d="M11.8398 0H3.87109C1.92947 0 0.355469 1.574 0.355469 3.51562V11.4844C0.355469 13.426 1.92947 15 3.87109 15H11.8398C13.7815 15 15.3555 13.426 15.3555 11.4844V3.51562C15.3555 1.574 13.7815 0 11.8398 0Z" fill="url(#paint0_radial_4588_44359)"/>
<path d="M11.8398 0H3.87109C1.92947 0 0.355469 1.574 0.355469 3.51562V11.4844C0.355469 13.426 1.92947 15 3.87109 15H11.8398C13.7815 15 15.3555 13.426 15.3555 11.4844V3.51562C15.3555 1.574 13.7815 0 11.8398 0Z" fill="url(#paint1_radial_4588_44359)"/>
<path d="M7.856 1.64062C6.26471 1.64062 6.06496 1.6476 5.44 1.67602C4.81621 1.70461 4.39041 1.80334 4.01787 1.94824C3.63244 2.09789 3.30555 2.29811 2.97988 2.62389C2.65393 2.94961 2.45371 3.2765 2.30359 3.66176C2.15828 4.03441 2.05943 4.46039 2.03137 5.08389C2.00342 5.70891 1.99609 5.90871 1.99609 7.50006C1.99609 9.09141 2.00313 9.29051 2.03148 9.91547C2.0602 10.5393 2.15893 10.9651 2.30371 11.3376C2.45348 11.723 2.65369 12.0499 2.97947 12.3756C3.30508 12.7015 3.63197 12.9022 4.01711 13.0519C4.38994 13.1968 4.8158 13.2955 5.43947 13.3241C6.06449 13.3525 6.26406 13.3595 7.85529 13.3595C9.44676 13.3595 9.64586 13.3525 10.2708 13.3241C10.8946 13.2955 11.3209 13.1968 11.6937 13.0519C12.079 12.9022 12.4054 12.7015 12.7309 12.3756C13.0569 12.0499 13.2571 11.723 13.4072 11.3378C13.5513 10.9651 13.6502 10.5391 13.6795 9.91559C13.7075 9.29062 13.7148 9.09141 13.7148 7.50006C13.7148 5.90871 13.7075 5.70902 13.6795 5.084C13.6502 4.46021 13.5513 4.03447 13.4072 3.66193C13.2571 3.2765 13.0569 2.94961 12.7309 2.62389C12.405 2.29799 12.0791 2.09777 11.6934 1.9483C11.3198 1.80334 10.8938 1.70455 10.27 1.67602C9.64498 1.6476 9.446 1.64062 7.85418 1.64062H7.856ZM7.33035 2.69654C7.48639 2.69631 7.66047 2.69654 7.856 2.69654C9.42051 2.69654 9.6059 2.70217 10.2237 2.73023C10.795 2.75637 11.1051 2.85182 11.3116 2.93203C11.5851 3.0382 11.78 3.16518 11.985 3.37031C12.1901 3.57539 12.317 3.77068 12.4234 4.04414C12.5037 4.25039 12.5992 4.56047 12.6252 5.13176C12.6533 5.74945 12.6594 5.93496 12.6594 7.49871C12.6594 9.06246 12.6533 9.24803 12.6252 9.86566C12.5991 10.437 12.5037 10.747 12.4234 10.9533C12.3173 11.2268 12.1901 11.4215 11.985 11.6265C11.7799 11.8315 11.5852 11.9585 11.3116 12.0647C11.1053 12.1453 10.795 12.2405 10.2237 12.2666C9.60602 12.2947 9.42051 12.3008 7.856 12.3008C6.29143 12.3008 6.10598 12.2947 5.48834 12.2666C4.91705 12.2402 4.60697 12.1448 4.40025 12.0646C4.12686 11.9583 3.9315 11.8314 3.72643 11.6263C3.52135 11.4213 3.39443 11.2264 3.28797 10.9529C3.20775 10.7466 3.11219 10.4365 3.08617 9.8652C3.05811 9.2475 3.05248 9.06199 3.05248 7.49725C3.05248 5.93256 3.05811 5.74799 3.08617 5.13029C3.1123 4.559 3.20775 4.24893 3.28797 4.04238C3.3942 3.76893 3.52135 3.57363 3.72648 3.36855C3.93156 3.16348 4.12686 3.0365 4.40031 2.9301C4.60686 2.84953 4.91705 2.75432 5.48834 2.72807C6.02887 2.70363 6.23834 2.69631 7.33035 2.69508V2.69654ZM10.9837 3.66943C10.5955 3.66943 10.2806 3.98408 10.2806 4.37232C10.2806 4.76051 10.5955 5.07545 10.9837 5.07545C11.3719 5.07545 11.6869 4.76051 11.6869 4.37232C11.6869 3.98414 11.3719 3.6692 10.9837 3.6692V3.66943ZM7.856 4.49098C6.19428 4.49098 4.84697 5.83828 4.84697 7.50006C4.84697 9.16184 6.19428 10.5085 7.856 10.5085C9.51777 10.5085 10.8646 9.16184 10.8646 7.50006C10.8646 5.83834 9.51766 4.49098 7.85588 4.49098H7.856ZM7.856 5.54689C8.93465 5.54689 9.80916 6.42129 9.80916 7.50006C9.80916 8.57871 8.93465 9.45322 7.856 9.45322C6.77729 9.45322 5.90289 8.57871 5.90289 7.50006C5.90289 6.42129 6.77729 5.54689 7.856 5.54689Z" fill="white"/>
</g>
<defs>
<radialGradient id="paint0_radial_4588_44359" cx="0" cy="0" r="1" gradientUnits="userSpaceOnUse" gradientTransform="translate(4.33984 16.1553) rotate(-90) scale(14.8661 13.8267)">
<stop stop-color="#FFDD55"/>
<stop offset="0.1" stop-color="#FFDD55"/>
<stop offset="0.5" stop-color="#FF543E"/>
<stop offset="1" stop-color="#C837AB"/>
</radialGradient>
<radialGradient id="paint1_radial_4588_44359" cx="0" cy="0" r="1" gradientUnits="userSpaceOnUse" gradientTransform="translate(-2.15709 1.08053) rotate(78.681) scale(6.64523 27.3919)">
<stop stop-color="#3771C8"/>
<stop offset="0.128" stop-color="#3771C8"/>
<stop offset="1" stop-color="#6600FF" stop-opacity="0"/>
</radialGradient>
<clipPath id="clip0_4588_44359">
<rect width="15" height="15" fill="white" transform="translate(0.355469)"/>
</clipPath>
</defs>
</svg>
