<svg width="16" height="15" viewBox="0 0 16 15" fill="none" xmlns="http://www.w3.org/2000/svg">
<path d="M11.8398 0H3.87109C1.92947 0 0.355469 1.574 0.355469 3.51562V11.4844C0.355469 13.426 1.92947 15 3.87109 15H11.8398C13.7815 15 15.3555 13.426 15.3555 11.4844V3.51562C15.3555 1.574 13.7815 0 11.8398 0Z" fill="white"/>
<path d="M11.8398 0H3.87109C1.92947 0 0.355469 1.574 0.355469 3.51562V11.4844C0.355469 13.426 1.92947 15 3.87109 15H11.8398C13.7815 15 15.3555 13.426 15.3555 11.4844V3.51562C15.3555 1.574 13.7815 0 11.8398 0Z" fill="#0A66C2"/>
<path d="M11.1786 12.755H12.8937C12.9558 12.755 13.0154 12.7303 13.0594 12.6864C13.1033 12.6424 13.128 12.5828 13.128 12.5207L13.1289 8.89711C13.1289 7.00318 12.7208 5.54742 10.5075 5.54742C9.66619 5.51613 8.87277 5.94984 8.44463 6.67406C8.44254 6.67758 8.43935 6.68032 8.43556 6.68185C8.43176 6.68339 8.42757 6.68364 8.42362 6.68258C8.41967 6.68151 8.41617 6.67917 8.41367 6.67593C8.41117 6.67269 8.4098 6.66872 8.40977 6.66463V5.95664C8.40977 5.89448 8.38507 5.83487 8.34112 5.79091C8.29716 5.74696 8.23755 5.72227 8.17539 5.72227H6.54783C6.48567 5.72227 6.42606 5.74696 6.3821 5.79091C6.33815 5.83487 6.31346 5.89448 6.31346 5.95664V12.5203C6.31346 12.5825 6.33815 12.6421 6.3821 12.686C6.42606 12.73 6.48567 12.7547 6.54783 12.7547H8.26275C8.32491 12.7547 8.38453 12.73 8.42848 12.686C8.47244 12.6421 8.49713 12.5825 8.49713 12.5203V9.2758C8.49713 8.3584 8.67115 7.46994 9.80852 7.46994C10.9297 7.46994 10.9442 8.51971 10.9442 9.33522V12.5206C10.9442 12.5828 10.9689 12.6424 11.0129 12.6863C11.0568 12.7303 11.1165 12.755 11.1786 12.755ZM2.58203 3.49377C2.58203 4.18898 3.15432 4.76098 3.84953 4.76098C4.54457 4.76092 5.1165 4.18857 5.1165 3.49354C5.11639 2.7985 4.54439 2.22656 3.8493 2.22656C3.15402 2.22656 2.58203 2.79861 2.58203 3.49377ZM2.98979 12.755H4.70699C4.76915 12.755 4.82877 12.7303 4.87272 12.6863C4.91667 12.6424 4.94137 12.5828 4.94137 12.5206V5.95664C4.94137 5.89448 4.91667 5.83487 4.87272 5.79091C4.82877 5.74696 4.76915 5.72227 4.70699 5.72227H2.98979C2.92763 5.72227 2.86801 5.74696 2.82406 5.79091C2.7801 5.83487 2.75541 5.89448 2.75541 5.95664V12.5206C2.75541 12.5828 2.7801 12.6424 2.82406 12.6863C2.86801 12.7303 2.92763 12.755 2.98979 12.755Z" fill="white"/>
</svg>
