<svg width="21" height="15" viewBox="0 0 21 15" fill="none" xmlns="http://www.w3.org/2000/svg">
<g clip-path="url(#clip0_4588_44356)">
<path d="M19.9076 2.33958C19.7908 1.88738 19.563 1.47512 19.2469 1.14386C18.9308 0.812593 18.5375 0.573884 18.1059 0.4515C16.5262 0 10.1682 0 10.1682 0C10.1682 0 3.80998 0.0136666 2.23024 0.465167C1.79872 0.587558 1.40533 0.82628 1.08924 1.15756C0.773145 1.48884 0.545382 1.90111 0.428629 2.35333C-0.0492077 5.29483 -0.234569 9.777 0.441749 12.6008C0.558515 13.053 0.786283 13.4653 1.10237 13.7966C1.41847 14.1278 1.81185 14.3665 2.24336 14.4889C3.8231 14.9404 10.1812 14.9404 10.1812 14.9404C10.1812 14.9404 16.5392 14.9404 18.1189 14.4889C18.5504 14.3665 18.9438 14.1278 19.2599 13.7966C19.576 13.4653 19.8038 13.053 19.9206 12.6008C20.4246 9.65517 20.5799 5.17575 19.9076 2.33958Z" fill="#FF0000"/>
<path d="M8.14453 10.6716L13.4189 7.47005L8.14453 4.26855V10.6716Z" fill="white"/>
</g>
<defs>
<clipPath id="clip0_4588_44356">
<rect width="20.3571" height="15" fill="white"/>
</clipPath>
</defs>
</svg>
