<svg width="14" height="16" viewBox="0 0 14 16" fill="none" xmlns="http://www.w3.org/2000/svg">
<path d="M6.7544 7.70725C7.84235 7.70725 8.78445 7.32747 9.55423 6.57819C10.324 5.82907 10.7142 4.91245 10.7142 3.85352C10.7142 2.7949 10.324 1.87818 9.5541 1.12878C8.7842 0.379748 7.84222 0 6.7544 0C5.66629 0 4.72441 0.379749 3.95467 1.1289C3.18493 1.87806 2.79457 2.7948 2.79457 3.85352C2.79457 4.91245 3.18489 5.8292 3.95479 6.57835C4.7247 7.32738 5.66667 7.70725 6.7544 7.70725ZM13.683 12.3032C13.6608 11.9914 13.6159 11.6513 13.5498 11.2922C13.483 10.9304 13.3971 10.5883 13.2943 10.2757C13.188 9.95259 13.0436 9.63352 12.865 9.32771C12.6796 9.01034 12.4618 8.73397 12.2175 8.50656C11.962 8.26865 11.6491 8.07737 11.2874 7.93781C10.9269 7.79906 10.5274 7.72875 10.1001 7.72875C9.93226 7.72875 9.76997 7.79575 9.45652 7.99437C9.2337 8.13558 9.01023 8.27579 8.78609 8.415C8.57073 8.54856 8.27898 8.67368 7.91861 8.78697C7.56704 8.89768 7.21007 8.95384 6.85773 8.95384C6.50542 8.95384 6.14855 8.89768 5.79659 8.78697C5.43664 8.67378 5.14489 8.54869 4.92975 8.41512C4.68025 8.25997 4.45452 8.11837 4.25872 7.99422C3.94564 7.79563 3.7832 7.72859 3.61539 7.72859C3.18791 7.72859 2.78856 7.79903 2.42819 7.93797C2.0667 8.07725 1.75375 8.26853 1.498 8.50669C1.2538 8.73422 1.03593 9.01043 0.850789 9.32771C0.672321 9.63349 0.527827 9.95246 0.421446 10.2758C0.318694 10.5885 0.2328 10.9304 0.166076 11.2922C0.0999613 11.6508 0.0550716 11.991 0.0328515 12.3035C0.0107477 12.618 -0.000208334 12.9331 2.99952e-06 13.2484C2.99952e-06 14.0836 0.272809 14.7597 0.81078 15.2583C1.3421 15.7504 2.04512 16.0001 2.90005 16.0001H10.8162C11.6711 16.0001 12.3739 15.7506 12.9053 15.2584C13.4434 14.7601 13.7162 14.0838 13.7162 13.2482C13.7161 12.9259 13.705 12.6079 13.683 12.3032Z" fill="white"/>
</svg>
