<svg width="17" height="9" viewBox="0 0 17 9" fill="none" xmlns="http://www.w3.org/2000/svg">
<path d="M8.5797 8.43754C8.48294 8.43763 8.38711 8.42069 8.29773 8.38769C8.20834 8.35469 8.12715 8.30629 8.05883 8.24526L0.691495 1.68276C0.403616 1.42633 0.403616 1.01109 0.691495 0.754822C0.979373 0.498557 1.44554 0.498393 1.73324 0.754822L8.5797 6.85335L15.4262 0.754822C15.714 0.498393 16.1802 0.498393 16.4679 0.754822C16.7556 1.01125 16.7558 1.42649 16.4679 1.68276L9.10057 8.24526C9.03225 8.30629 8.95106 8.35469 8.86167 8.38769C8.77228 8.42069 8.67646 8.43763 8.5797 8.43754Z" fill="white"/>
</svg>
