<svg width="20" height="20" viewBox="0 0 20 20" fill="none" xmlns="http://www.w3.org/2000/svg">
<g clip-path="url(#clip0_127_1796)">
<path d="M4.14059 14.1406H1.79686C1.47326 14.1406 1.21092 14.403 1.21092 14.7265V19.0234C1.21092 19.347 1.47326 19.6093 1.79686 19.6093H4.14059C4.46418 19.6093 4.72652 19.347 4.72652 19.0234V14.7265C4.72652 14.403 4.46418 14.1406 4.14059 14.1406ZM8.82805 12.7344H6.48432C6.16073 12.7344 5.89839 12.9967 5.89839 13.3203V19.0234C5.89839 19.347 6.16073 19.6093 6.48432 19.6093H8.82805C9.15164 19.6093 9.41398 19.347 9.41398 19.0234V13.3203C9.41398 12.9967 9.15164 12.7344 8.82805 12.7344Z" fill="#4BC0FF"/>
<path d="M13.5155 10.5859H11.1718C10.8482 10.5859 10.5859 10.8482 10.5859 11.1718V19.0233C10.5859 19.3469 10.8482 19.6093 11.1718 19.6093H13.5155C13.8391 19.6093 14.1015 19.3469 14.1015 19.0233V11.1718C14.1015 10.8482 13.8391 10.5859 13.5155 10.5859ZM18.203 6.67969H15.8593C15.5357 6.67969 15.2733 6.94203 15.2733 7.26562V19.0233C15.2733 19.3469 15.5357 19.6093 15.8593 19.6093H18.203C18.5266 19.6093 18.7889 19.3469 18.7889 19.0233V7.26562C18.7889 6.94203 18.5266 6.67969 18.203 6.67969Z" fill="#0592FD"/>
<path d="M19.9799 4.01512L19.0204 0.434288C18.9802 0.284188 18.882 0.156214 18.7474 0.0785128C18.6128 0.000811883 18.4529 -0.0202517 18.3028 0.0199552L14.722 0.97944C14.4093 1.06319 14.2239 1.38448 14.3076 1.69705C14.3914 2.00963 14.7128 2.19517 15.0252 2.11135L17.3321 1.49322C15.9913 3.82317 13.7754 6.11795 11.0982 7.91946C7.74564 10.1755 4.01227 11.418 0.585933 11.418C0.262342 11.418 0 11.6804 0 12.004C0 12.3276 0.262342 12.5899 0.585933 12.5899C4.24286 12.5899 8.20857 11.2765 11.7525 8.89176C14.5281 7.024 16.8417 4.63797 18.2789 2.19474L18.8479 4.31844C18.9181 4.58023 19.1548 4.75289 19.4135 4.75289C19.4649 4.75285 19.516 4.74609 19.5656 4.73277C19.8781 4.64898 20.0636 4.3277 19.9799 4.01512Z" fill="#A5D02A"/>
<path d="M19.9799 4.01512L19.0204 0.434288C18.9802 0.284188 18.882 0.156214 18.7474 0.0785128C18.6128 0.000811883 18.4529 -0.0202517 18.3028 0.0199552L14.722 0.97944C14.4093 1.06319 14.2239 1.38448 14.3076 1.69705C14.3914 2.00963 14.7128 2.19517 15.0252 2.11135L17.332 1.49322C15.9913 3.82317 13.7754 6.11795 11.0982 7.91946C10.7387 8.16113 10.3724 8.39259 9.99988 8.61356V9.96484C10.5991 9.63237 11.1839 9.27433 11.7524 8.89172C14.528 7.02396 16.8417 4.63793 18.2789 2.1947L18.8479 4.3184C18.9181 4.58019 19.1548 4.75285 19.4135 4.75285C19.4648 4.75281 19.5159 4.74605 19.5655 4.73273C19.8781 4.64898 20.0636 4.32769 19.9799 4.01512Z" fill="#90BC02"/>
<path d="M19.4139 20H0.585933C0.262342 20 0 19.7376 0 19.4141C0 19.0905 0.262342 18.8281 0.585933 18.8281H19.4139C19.7375 18.8281 19.9998 19.0905 19.9998 19.4141C19.9998 19.7376 19.7375 20 19.4139 20Z" fill="#466288"/>
<path d="M19.4139 18.8281H9.99992V20H19.4139C19.7375 20 19.9998 19.7376 19.9998 19.4141C19.9998 19.0905 19.7375 18.8281 19.4139 18.8281Z" fill="#354A67"/>
</g>
<defs>
<clipPath id="clip0_127_1796">
<rect width="20" height="20" fill="white"/>
</clipPath>
</defs>
</svg>
