<svg width="18" height="18" viewBox="0 0 18 18" fill="none" xmlns="http://www.w3.org/2000/svg">
<g clip-path="url(#clip0_129_3350)">
<path d="M14.25 9.03423C13.8352 9.03423 13.5 9.37029 13.5 9.78418V15.7842C13.5 16.1975 13.1639 16.5342 12.75 16.5342H2.25C1.83597 16.5342 1.50005 16.1975 1.50005 15.7842V5.28418C1.50005 4.87095 1.83597 4.53423 2.25 4.53423H8.25005C8.66479 4.53423 9 4.1982 9 3.78427C9 3.37024 8.66479 3.03418 8.25005 3.03418H2.25C1.00951 3.03418 0 4.04369 0 5.28418V15.7842C0 17.0248 1.00951 18.0342 2.25 18.0342H12.75C13.9905 18.0342 15 17.0248 15 15.7842V9.78418C15 9.36948 14.6647 9.03423 14.25 9.03423Z" fill="#398AC8"/>
<path d="M7.03088 8.35132C6.97875 8.40369 6.94305 8.47013 6.92815 8.5425L6.39792 11.1946C6.37321 11.3175 6.4122 11.4443 6.50065 11.5335C6.53556 11.5683 6.57698 11.5959 6.62254 11.6147C6.66811 11.6335 6.71693 11.6431 6.76622 11.643C6.79013 11.643 6.81498 11.6408 6.8397 11.6356L9.49097 11.1054C9.56445 11.0902 9.63117 11.0551 9.68296 11.0025L15.617 5.06847L12.9657 2.41734L7.03088 8.35132ZM17.4499 0.58362C16.7187 -0.147665 15.5292 -0.147665 14.7986 0.58362L13.7607 1.62154L16.4119 4.27281L17.4499 3.23475C17.8039 2.88154 17.9989 2.41048 17.9989 1.9095C17.9989 1.40853 17.8039 0.937503 17.4499 0.58362Z" fill="#398AC8"/>
</g>
<defs>
<clipPath id="clip0_129_3350">
<rect width="18" height="18" fill="white"/>
</clipPath>
</defs>
</svg>
