<svg width="16" height="16" viewBox="0 0 16 16" fill="none" xmlns="http://www.w3.org/2000/svg">
<path d="M1.64706 5.17647C0.663059 5.17647 0 3.98306 0 2.58824C0 1.19341 0.663059 0 1.64706 0H14.3529C15.3369 0 16 1.19341 16 2.58824C16 3.98306 15.3369 5.17647 14.3529 5.17647H1.64706ZM14.3529 4.23529C14.6682 4.23529 15.0588 3.53247 15.0588 2.58824C15.0588 1.644 14.6682 0.941176 14.3529 0.941176C14.0376 0.941176 13.6471 1.644 13.6471 2.58824C13.6471 3.53247 14.0376 4.23529 14.3529 4.23529ZM12.2353 12.2353V8.70588C12.2353 7.70988 12.6329 7.05882 12.9412 7.05882H14.3529C15.3369 7.05882 16 8.25224 16 9.64706C16 11.0419 15.3369 12.2353 14.3529 12.2353H12.2353ZM14.3529 11.2941C14.6682 11.2941 15.0588 10.5913 15.0588 9.64706C15.0588 8.70282 14.6682 8 14.3529 8C14.0376 8 13.6471 8.70282 13.6471 9.64706C13.6471 10.5913 14.0376 11.2941 14.3529 11.2941ZM2.11765 12.2353H1.64706C0.663059 12.2353 0 11.0419 0 9.64706C0 8.25224 0.663059 7.05882 1.64706 7.05882H2.51176C2.25576 7.67788 2.11765 8.40659 2.11765 9.17647V12.2353ZM11.2941 15.5294C11.2941 15.6542 11.2445 15.7739 11.1563 15.8622C11.068 15.9504 10.9483 16 10.8235 16H3.52941C3.4046 16 3.28491 15.9504 3.19666 15.8622C3.1084 15.7739 3.05882 15.6542 3.05882 15.5294V14.5478L5.17647 12.4301L5.92282 13.1765L5.54965 13.5496C5.46393 13.6384 5.41649 13.7573 5.41757 13.8807C5.41864 14.004 5.46813 14.1221 5.55538 14.2093C5.64263 14.2966 5.76066 14.3461 5.88405 14.3471C6.00743 14.3482 6.1263 14.3008 6.21506 14.2151L8.47059 11.9595L11.2941 14.7831V15.5294ZM11.2941 8.70588V13.4522L8.80329 10.9614C8.71505 10.8732 8.59537 10.8236 8.47059 10.8236C8.34581 10.8236 8.22613 10.8732 8.13788 10.9614L6.58824 12.5111L5.50918 11.432C5.42093 11.3438 5.30125 11.2942 5.17647 11.2942C5.05169 11.2942 4.93201 11.3438 4.84376 11.432L3.05882 13.2169V9.17647C3.05882 7.52165 3.82471 6.11765 4.94118 6.11765H12.9412C11.9572 6.11765 11.2941 7.31106 11.2941 8.70588ZM5.88235 10.3529C6.25678 10.3529 6.61586 10.2042 6.88062 9.93945C7.14538 9.67469 7.29412 9.3156 7.29412 8.94118C7.29412 8.56675 7.14538 8.20767 6.88062 7.94291C6.61586 7.67815 6.25678 7.52941 5.88235 7.52941C5.50793 7.52941 5.14884 7.67815 4.88408 7.94291C4.61933 8.20767 4.47059 8.56675 4.47059 8.94118C4.47059 9.3156 4.61933 9.67469 4.88408 9.93945C5.14884 10.2042 5.50793 10.3529 5.88235 10.3529ZM5.88235 9.41177C5.75754 9.41177 5.63785 9.36219 5.5496 9.27393C5.46134 9.18568 5.41176 9.06598 5.41176 8.94118C5.41176 8.81637 5.46134 8.69667 5.5496 8.60842C5.63785 8.52017 5.75754 8.47059 5.88235 8.47059C6.00716 8.47059 6.12686 8.52017 6.21511 8.60842C6.30336 8.69667 6.35294 8.81637 6.35294 8.94118C6.35294 9.06598 6.30336 9.18568 6.21511 9.27393C6.12686 9.36219 6.00716 9.41177 5.88235 9.41177Z" fill="#398AC8"/>
</svg>
