<svg width="10" height="13" viewBox="0 0 10 13" fill="none" xmlns="http://www.w3.org/2000/svg">
<path d="M5 2.95455V4.72727L7.5 2.36364L5 0V1.77273C3.67392 1.77273 2.40215 2.27078 1.46447 3.15731C0.526784 4.04385 0 5.24625 0 6.5C0 7.42773 0.2875 8.29045 0.775 9.01727L1.6875 8.15455C1.39904 7.64578 1.24871 7.07725 1.25 6.5C1.25 5.55969 1.64509 4.65789 2.34835 3.99299C3.05161 3.32808 4.00544 2.95455 5 2.95455ZM9.225 3.98273L8.3125 4.84545C8.5875 5.34182 8.75 5.90909 8.75 6.5C8.75 7.44031 8.35491 8.34211 7.65165 9.00702C6.94839 9.67192 5.99456 10.0455 5 10.0455V8.27273L2.5 10.6364L5 13V11.2273C6.32608 11.2273 7.59785 10.7292 8.53553 9.84269C9.47322 8.95615 10 7.75375 10 6.5C10 5.57227 9.7125 4.70955 9.225 3.98273Z" fill="#398AC8"/>
</svg>
