<svg width="16" height="16" viewBox="0 0 16 16" fill="none" xmlns="http://www.w3.org/2000/svg">
<path d="M11.3333 5.33301H4.66667C4.48986 5.33301 4.32029 5.26277 4.19526 5.13775C4.07024 5.01272 4 4.84315 4 4.66634V3.33301C4 2.80257 4.21071 2.29387 4.58579 1.91879C4.96086 1.54372 5.46957 1.33301 6 1.33301H10C10.5304 1.33301 11.0391 1.54372 11.4142 1.91879C11.7893 2.29387 12 2.80257 12 3.33301V4.66634C12 4.84315 11.9298 5.01272 11.8047 5.13775C11.6797 5.26277 11.5101 5.33301 11.3333 5.33301ZM5.33333 3.99967H10.6667V3.33301C10.6667 3.1562 10.5964 2.98663 10.4714 2.8616C10.3464 2.73658 10.1768 2.66634 10 2.66634H6C5.82319 2.66634 5.65362 2.73658 5.5286 2.8616C5.40357 2.98663 5.33333 3.1562 5.33333 3.33301V3.99967Z" fill="#C9273A"/>
<path d="M9.9987 14.666H5.9987C5.29145 14.666 4.61318 14.3851 4.11308 13.885C3.61298 13.3849 3.33203 12.7066 3.33203 11.9993V4.66602H12.6654V11.9993C12.6654 12.7066 12.3844 13.3849 11.8843 13.885C11.3842 14.3851 10.7059 14.666 9.9987 14.666Z" fill="#E63946"/>
<path d="M13.3333 5.33333H2.66667C2.48986 5.33333 2.32029 5.2631 2.19526 5.13807C2.07024 5.01305 2 4.84348 2 4.66667C2 4.48986 2.07024 4.32029 2.19526 4.19526C2.32029 4.07024 2.48986 4 2.66667 4H13.3333C13.5101 4 13.6797 4.07024 13.8047 4.19526C13.9298 4.32029 14 4.48986 14 4.66667C14 4.84348 13.9298 5.01305 13.8047 5.13807C13.6797 5.2631 13.5101 5.33333 13.3333 5.33333Z" fill="#E63946"/>
<path d="M6.66667 11.9993C6.48986 11.9993 6.32029 11.9291 6.19526 11.8041C6.07024 11.6791 6 11.5095 6 11.3327V7.33268C6 7.15587 6.07024 6.9863 6.19526 6.86128C6.32029 6.73625 6.48986 6.66602 6.66667 6.66602C6.84348 6.66602 7.01305 6.73625 7.13807 6.86128C7.2631 6.9863 7.33333 7.15587 7.33333 7.33268V11.3327C7.33333 11.5095 7.2631 11.6791 7.13807 11.8041C7.01305 11.9291 6.84348 11.9993 6.66667 11.9993ZM9.33333 11.9993C9.15652 11.9993 8.98695 11.9291 8.86193 11.8041C8.7369 11.6791 8.66667 11.5095 8.66667 11.3327V7.33268C8.66667 7.15587 8.7369 6.9863 8.86193 6.86128C8.98695 6.73625 9.15652 6.66602 9.33333 6.66602C9.51014 6.66602 9.67971 6.73625 9.80474 6.86128C9.92976 6.9863 10 7.15587 10 7.33268V11.3327C10 11.5095 9.92976 11.6791 9.80474 11.8041C9.67971 11.9291 9.51014 11.9993 9.33333 11.9993Z" fill="#EDEBEA"/>
</svg>
