<svg width="22" height="22" viewBox="0 0 22 22" fill="none" xmlns="http://www.w3.org/2000/svg">
<path d="M15.5833 7.33301H6.41667C6.17355 7.33301 5.94039 7.23643 5.76849 7.06452C5.59658 6.89261 5.5 6.65946 5.5 6.41634V4.58301C5.5 3.85366 5.78973 3.15419 6.30546 2.63846C6.82118 2.12274 7.52065 1.83301 8.25 1.83301H13.75C14.4793 1.83301 15.1788 2.12274 15.6945 2.63846C16.2103 3.15419 16.5 3.85366 16.5 4.58301V6.41634C16.5 6.65946 16.4034 6.89261 16.2315 7.06452C16.0596 7.23643 15.8264 7.33301 15.5833 7.33301ZM7.33333 5.49967H14.6667V4.58301C14.6667 4.33989 14.5701 4.10674 14.3982 3.93483C14.2263 3.76292 13.9931 3.66634 13.75 3.66634H8.25C8.00688 3.66634 7.77373 3.76292 7.60182 3.93483C7.42991 4.10674 7.33333 4.33989 7.33333 4.58301V5.49967Z" fill="#103358"/>
<path d="M13.7487 20.166H8.2487C7.27624 20.166 6.34361 19.7797 5.65597 19.0921C4.96834 18.4044 4.58203 17.4718 4.58203 16.4993V6.41602H17.4154V16.4993C17.4154 17.4718 17.0291 18.4044 16.3414 19.0921C15.6538 19.7797 14.7212 20.166 13.7487 20.166Z" fill="#103358"/>
<path d="M18.3333 7.33333H3.66667C3.42355 7.33333 3.19039 7.23676 3.01849 7.06485C2.84658 6.89294 2.75 6.65978 2.75 6.41667C2.75 6.17355 2.84658 5.94039 3.01849 5.76849C3.19039 5.59658 3.42355 5.5 3.66667 5.5H18.3333C18.5764 5.5 18.8096 5.59658 18.9815 5.76849C19.1534 5.94039 19.25 6.17355 19.25 6.41667C19.25 6.65978 19.1534 6.89294 18.9815 7.06485C18.8096 7.23676 18.5764 7.33333 18.3333 7.33333Z" fill="#103358"/>
<path d="M9.16667 16.4993C8.92355 16.4993 8.69039 16.4028 8.51849 16.2309C8.34658 16.059 8.25 15.8258 8.25 15.5827V10.0827C8.25 9.83957 8.34658 9.60641 8.51849 9.4345C8.69039 9.26259 8.92355 9.16602 9.16667 9.16602C9.40978 9.16602 9.64294 9.26259 9.81485 9.4345C9.98676 9.60641 10.0833 9.83957 10.0833 10.0827V15.5827C10.0833 15.8258 9.98676 16.059 9.81485 16.2309C9.64294 16.4028 9.40978 16.4993 9.16667 16.4993ZM12.8333 16.4993C12.5902 16.4993 12.3571 16.4028 12.1852 16.2309C12.0132 16.059 11.9167 15.8258 11.9167 15.5827V10.0827C11.9167 9.83957 12.0132 9.60641 12.1852 9.4345C12.3571 9.26259 12.5902 9.16602 12.8333 9.16602C13.0764 9.16602 13.3096 9.26259 13.4815 9.4345C13.6534 9.60641 13.75 9.83957 13.75 10.0827V15.5827C13.75 15.8258 13.6534 16.059 13.4815 16.2309C13.3096 16.4028 13.0764 16.4993 12.8333 16.4993Z" fill="#EDEBEA"/>
</svg>
