<svg width="17" height="20" viewBox="0 0 17 20" fill="none" xmlns="http://www.w3.org/2000/svg">
<path d="M8.20177 9.3588C9.52285 9.3588 10.6668 8.89764 11.6016 7.9878C12.5363 7.07816 13.0101 5.96512 13.0101 4.67927C13.0101 3.3938 12.5363 2.28065 11.6014 1.37066C10.6665 0.461123 9.5227 0 8.20177 0C6.88049 0 5.73678 0.461123 4.8021 1.37081C3.86741 2.2805 3.3934 3.39369 3.3934 4.67927C3.3934 5.96512 3.86737 7.07831 4.80225 7.98799C5.73713 8.89753 6.88096 9.3588 8.20177 9.3588ZM16.6151 14.9396C16.5881 14.561 16.5336 14.148 16.4533 13.712C16.3723 13.2726 16.268 12.8573 16.143 12.4776C16.0141 12.0853 15.8386 11.6978 15.6217 11.3265C15.3966 10.9411 15.1322 10.6055 14.8355 10.3294C14.5252 10.0405 14.1454 9.80824 13.7061 9.63877C13.2684 9.47029 12.7833 9.38491 12.2644 9.38491C12.0606 9.38491 11.8635 9.46627 11.4829 9.70745C11.2124 9.87892 10.941 10.0492 10.6688 10.2182C10.4073 10.3804 10.053 10.5323 9.61545 10.6699C9.18855 10.8043 8.75509 10.8725 8.32724 10.8725C7.89944 10.8725 7.46609 10.8043 7.03872 10.6699C6.60163 10.5324 6.24736 10.3805 5.98612 10.2184C5.68317 10.03 5.40906 9.85802 5.1713 9.70726C4.79114 9.46611 4.59389 9.38472 4.39012 9.38472C3.87104 9.38472 3.38611 9.47025 2.94852 9.63896C2.50956 9.80809 2.12956 10.0404 1.819 10.3295C1.52247 10.6058 1.25792 10.9412 1.0331 11.3265C0.81639 11.6978 0.640932 12.0851 0.511756 12.4778C0.386986 12.8574 0.282686 13.2726 0.201663 13.712C0.121382 14.1474 0.0668727 14.5606 0.0398911 14.94C0.0130507 15.3219 -0.000252977 15.7045 3.64227e-06 16.0873C3.64227e-06 17.1015 0.331268 17.9225 0.984518 18.528C1.6297 19.1255 2.48336 19.4286 3.52149 19.4286H13.1339C14.1721 19.4286 15.0254 19.1257 15.6707 18.528C16.3242 17.9229 16.6554 17.1018 16.6554 16.0871C16.6553 15.6957 16.6417 15.3095 16.6151 14.9396Z" fill="#103358"/>
</svg>
