<svg width="22" height="22" viewBox="0 0 22 22" fill="none" xmlns="http://www.w3.org/2000/svg">
<path fill-rule="evenodd" clip-rule="evenodd" d="M6.41666 0.916016C5.68732 0.916016 4.98784 1.20575 4.47212 1.72147C3.95639 2.2372 3.66666 2.93667 3.66666 3.66602V5.49935H2.74999C2.50688 5.49935 2.27372 5.59593 2.10181 5.76784C1.92991 5.93974 1.83333 6.1729 1.83333 6.41602C1.83333 6.65913 1.92991 6.89229 2.10181 7.0642C2.27372 7.23611 2.50688 7.33268 2.74999 7.33268H3.66666V10.0827H2.74999C2.50688 10.0827 2.27372 10.1793 2.10181 10.3512C1.92991 10.5231 1.83333 10.7562 1.83333 10.9993C1.83333 11.2425 1.92991 11.4756 2.10181 11.6475C2.27372 11.8194 2.50688 11.916 2.74999 11.916H3.66666V14.666H2.74999C2.50688 14.666 2.27372 14.7626 2.10181 14.9345C1.92991 15.1064 1.83333 15.3396 1.83333 15.5827C1.83333 15.8258 1.92991 16.059 2.10181 16.2309C2.27372 16.4028 2.50688 16.4994 2.74999 16.4994H3.66666V18.3327C3.66666 19.062 3.95639 19.7615 4.47212 20.2772C4.98784 20.793 5.68732 21.0827 6.41666 21.0827H17.4167C18.146 21.0827 18.8455 20.793 19.3612 20.2772C19.8769 19.7615 20.1667 19.062 20.1667 18.3327V3.66602C20.1667 2.93667 19.8769 2.2372 19.3612 1.72147C18.8455 1.20575 18.146 0.916016 17.4167 0.916016H6.41666ZM13.75 8.24935C13.75 8.73558 13.5568 9.20189 13.213 9.54571C12.8692 9.88953 12.4029 10.0827 11.9167 10.0827C11.4304 10.0827 10.9641 9.88953 10.6203 9.54571C10.2765 9.20189 10.0833 8.73558 10.0833 8.24935C10.0833 7.76312 10.2765 7.2968 10.6203 6.95299C10.9641 6.60917 11.4304 6.41602 11.9167 6.41602C12.4029 6.41602 12.8692 6.60917 13.213 6.95299C13.5568 7.2968 13.75 7.76312 13.75 8.24935ZM8.25 13.7493C8.25 14.2356 8.44315 14.7019 8.78697 15.0457C9.13078 15.3895 9.5971 15.5827 10.0833 15.5827H13.75C14.2362 15.5827 14.7025 15.3895 15.0464 15.0457C15.3902 14.7019 15.5833 14.2356 15.5833 13.7493C15.5833 13.2631 15.3902 12.7968 15.0464 12.453C14.7025 12.1092 14.2362 11.916 13.75 11.916H10.0833C9.5971 11.916 9.13078 12.1092 8.78697 12.453C8.44315 12.7968 8.25 13.2631 8.25 13.7493Z" fill="#103358"/>
</svg>
