<svg width="22" height="18" viewBox="0 0 22 18" fill="none" xmlns="http://www.w3.org/2000/svg">
<path d="M3.36535 0.595779H3.3635C3.26102 0.595558 3.15952 0.615639 3.06486 0.654861C2.97019 0.694084 2.88423 0.751671 2.81194 0.824298C2.73824 0.897444 2.6798 0.984504 2.64003 1.08042C2.60025 1.17634 2.57993 1.2792 2.58023 1.38304V13.1879C2.58023 13.6208 2.93379 13.9738 3.36846 13.9749C5.20091 13.9793 8.27099 14.3612 10.3889 16.5776V4.22349C10.3889 4.07675 10.3514 3.9389 10.2807 3.82483C8.5424 1.02541 5.20195 0.600075 3.36535 0.595779ZM19.4198 13.1879V1.38297C19.4198 1.17171 19.3375 0.973261 19.1881 0.824224C19.1159 0.751616 19.0299 0.69404 18.9353 0.654819C18.8406 0.615597 18.7391 0.595506 18.6367 0.595705H18.6347C16.7982 0.600075 13.4578 1.02541 11.7194 3.82483C11.6486 3.9389 11.6112 4.07675 11.6112 4.22349V16.5775C13.7292 14.3612 16.7992 13.9792 18.6317 13.9749C19.0663 13.9737 19.4198 13.6207 19.4198 13.1879Z" fill="#103358"/>
<path d="M21.2129 3.31836H20.6421V13.1881C20.6421 14.2934 19.7415 15.1946 18.6346 15.1974C17.0803 15.2011 14.5175 15.505 12.7024 17.2229C15.8415 16.4543 19.1507 16.9539 21.0367 17.3837C21.1522 17.4103 21.2723 17.4105 21.3878 17.3841C21.5034 17.3578 21.6116 17.3056 21.7041 17.2315C21.7967 17.158 21.8714 17.0645 21.9226 16.958C21.9738 16.8515 22.0003 16.7348 22 16.6166V4.10547C22.0001 3.67147 21.6469 3.31836 21.2129 3.31836ZM1.35793 13.1881V3.31836H0.787114C0.353186 3.31836 0 3.67147 0 4.10547V16.6164C0 16.8571 0.107852 17.0813 0.295853 17.2313C0.388398 17.3054 0.496532 17.3576 0.612136 17.384C0.72774 17.4103 0.847811 17.4101 0.963337 17.3834C2.84927 16.9536 6.15854 16.454 9.29751 17.2226C7.48254 15.5048 4.91972 15.201 3.36542 15.1973C2.25853 15.1946 1.35793 14.2934 1.35793 13.1881Z" fill="#103358"/>
</svg>
