<svg width="25" height="25" viewBox="0 0 25 25" fill="none" xmlns="http://www.w3.org/2000/svg">
<path d="M5.39062 13.0078C5.39062 16.9531 8.59375 20.1172 12.5 20.1172C16.4063 20.1172 19.6094 16.9141 19.6094 13.0078C19.6094 9.0625 16.4453 5.85938 12.5 5.85938C8.55469 5.85938 5.39062 9.0625 5.39062 13.0078ZM11.7188 12.6172V8.82813C11.7188 8.39844 12.0703 8.04688 12.5 8.04688C12.9297 8.04688 13.2813 8.4375 13.2813 8.82813V12.3828H15.5469C15.9766 12.3828 16.3281 12.7344 16.3281 13.1641C16.3281 13.5938 15.9375 13.9453 15.5469 13.9453H12.5C12.0703 13.9453 11.7188 13.5938 11.7188 13.1641V12.6172Z" fill="#103358"/>
<path d="M22.0703 9.9602C20.8984 6.24926 17.6172 3.59301 13.7891 3.04613C13.8281 2.92895 13.8672 2.81176 13.8672 2.73363C13.8672 2.42113 13.6719 2.1477 13.4375 2.03051C13.125 1.87426 12.8125 1.95238 12.5391 2.18676L11.7188 2.88988C11.6016 3.00707 11.4453 3.0852 11.3672 3.20238C11.2891 3.31957 11.25 3.47582 11.25 3.63207C11.25 3.98363 11.4844 4.17895 11.6797 4.45238C11.9141 4.72582 12.1484 5.03832 12.4219 5.31176C12.8516 5.81957 13.75 5.42895 13.75 4.80395V4.6477C16.5234 5.07738 18.9844 6.8352 20.2344 9.41332C21.6406 12.343 21.1719 16.0149 19.0625 18.4758C16.9531 20.9758 13.5547 22.0696 10.3906 21.2493C7.26563 20.4289 4.88282 17.8508 4.25782 14.7258C3.43751 10.8196 5.625 6.91332 9.17969 5.2727C9.57032 5.11645 9.64844 4.53051 9.45313 4.21801C9.21875 3.82738 8.78907 3.74926 8.39844 3.94457C4.68751 5.62426 2.30469 9.53051 2.53907 13.6321C2.77344 17.4993 5.19532 20.8977 8.75 22.3821C12.3438 23.8664 16.5625 23.0852 19.375 20.468C22.1484 17.7727 23.2422 13.6321 22.0703 9.9602Z" fill="#103358"/>
</svg>
