<svg width="25" height="25" viewBox="0 0 25 25" fill="none" xmlns="http://www.w3.org/2000/svg">
<path d="M17.3551 14.0186L12.6481 12.1358C12.5549 12.1006 12.4521 12.1006 12.359 12.1358L7.65196 14.0186C7.38907 14.1162 7.39415 14.433 7.35118 14.667C7.0882 16.4708 7.43646 18.3107 8.34047 19.8936C9.24448 21.4765 10.6522 22.7114 12.3395 23.4014C12.5332 23.5119 12.7785 23.3428 12.9527 23.2686C14.566 22.5421 15.8981 21.309 16.747 19.7566C17.5958 18.2042 17.9149 16.4172 17.6559 14.667C17.6133 14.433 17.6184 14.1162 17.3551 14.0186ZM12.5035 20.5069C11.7786 20.506 11.0836 20.2177 10.5709 19.7051C10.0583 19.1924 9.76998 18.4974 9.76915 17.7725C9.89728 14.1537 15.1102 14.1545 15.2379 17.7725C15.2371 18.4974 14.9487 19.1924 14.4361 19.7051C13.9235 20.2177 13.2285 20.506 12.5035 20.5069Z" fill="#103358"/>
<path d="M20.6363 16.2578C20.1754 14.9123 19.3877 13.7023 18.344 12.7362C17.3002 11.7702 16.0329 11.0783 14.6559 10.7227C19.1664 8.43164 17.6262 1.6336 12.5035 1.5625C11.4135 1.56162 10.3552 1.92933 9.5005 2.60589C8.64584 3.28246 8.04504 4.22812 7.79571 5.28926C7.54637 6.3504 7.66315 7.46467 8.12708 8.45106C8.591 9.43745 9.37481 10.238 10.3512 10.7227C8.97412 11.0783 7.70687 11.7702 6.66309 12.7362C5.61931 13.7023 4.83163 14.9123 4.37071 16.2578C3.8004 17.7676 5.10938 19.482 6.69883 19.4375H7.22618C7.15196 19.2695 7.08165 19.0977 7.01915 18.9258C6.50043 17.5264 6.34847 16.0176 6.57774 14.543C6.57604 14.28 6.64985 14.022 6.79041 13.7998C6.93098 13.5775 7.13238 13.4003 7.37071 13.2891L12.0699 11.4102C12.3433 11.3025 12.6471 11.3011 12.9215 11.4063L17.6441 13.293C17.8399 13.371 18.011 13.5004 18.1396 13.6674C18.2681 13.8344 18.3493 14.033 18.3746 14.2422C18.7141 15.9942 18.5054 17.8083 17.777 19.4375C18.254 19.5071 18.7411 19.4478 19.1875 19.2658C19.634 19.0838 20.0236 18.7857 20.316 18.4023C20.5383 18.0972 20.6835 17.7428 20.7392 17.3694C20.795 16.996 20.7597 16.6146 20.6363 16.2578Z" fill="#103358"/>
<path d="M12.5035 15.8203C9.92189 15.9008 9.92267 19.6465 12.5035 19.7266C15.0852 19.6461 15.0844 15.9004 12.5035 15.8203ZM13.7848 17.2227L12.6363 18.7852C12.6031 18.8309 12.5603 18.869 12.5109 18.8966C12.4615 18.9243 12.4067 18.9409 12.3503 18.9454C12.2938 18.9498 12.2371 18.942 12.184 18.9224C12.1309 18.9029 12.0827 18.872 12.0426 18.832L11.2613 18.0508C11.2249 18.0144 11.196 17.9711 11.1763 17.9235C11.1566 17.8759 11.1465 17.8249 11.1465 17.7734C11.1465 17.7219 11.1566 17.6709 11.1763 17.6233C11.196 17.5758 11.2249 17.5325 11.2613 17.4961C11.2978 17.4597 11.341 17.4308 11.3886 17.4111C11.4362 17.3914 11.4872 17.3812 11.5387 17.3812C11.5902 17.3812 11.6412 17.3914 11.6888 17.4111C11.7364 17.4308 11.7796 17.4597 11.816 17.4961L12.2731 17.957L13.152 16.7617C13.2131 16.6778 13.3051 16.6216 13.4076 16.6055C13.5102 16.5894 13.6149 16.6147 13.6988 16.6758C13.7828 16.7369 13.839 16.8289 13.8551 16.9314C13.8712 17.034 13.8459 17.1387 13.7848 17.2227Z" fill="#103358"/>
</svg>
