<svg width="22" height="22" viewBox="0 0 22 22" fill="none" xmlns="http://www.w3.org/2000/svg">
<g clip-path="url(#clip0_200_1522)">
<path d="M6.77874 6.78795C7.7239 6.78795 8.4901 6.02175 8.4901 5.07659C8.4901 4.13144 7.7239 3.36523 6.77874 3.36523C5.83358 3.36523 5.06738 4.13144 5.06738 5.07659C5.06738 6.02175 5.83358 6.78795 6.77874 6.78795Z" fill="#103358"/>
<path d="M17.2422 2.93507C16.7108 2.25698 16.214 1.80581 15.7333 1.45969C16.0738 0.8855 16.4303 0.416368 16.8213 0.17411C15.104 -0.637656 13.8664 1.69813 12.149 0.886317C12.2892 1.80666 12.4295 2.72701 12.5699 3.64732C14.2872 4.459 15.5248 2.12326 17.2422 2.93507Z" fill="#103358"/>
<path d="M22 19.0417C20.2952 17.6908 15.8383 15.0793 13.3455 15.0793C12.3753 15.0793 11.0016 15.5425 9.41424 16.2919L8.47533 12.9926V9.55287C8.47533 9.42873 8.61476 9.13392 8.87562 9.15278L9.95203 10.5488C10.1643 10.817 10.4507 10.7945 10.4507 10.7945C10.4573 10.7945 11.7516 10.7335 12.5327 10.6967L13.1181 14.537C13.1252 14.5837 13.1415 14.6286 13.166 14.6691C13.1904 14.7096 13.2227 14.7448 13.2608 14.7729C13.2989 14.8009 13.3421 14.8211 13.3881 14.8324C13.434 14.8437 13.4817 14.8459 13.5285 14.8387C13.5752 14.8316 13.6201 14.8153 13.6606 14.7909C13.701 14.7664 13.7363 14.7342 13.7643 14.6961C13.7923 14.658 13.8126 14.6147 13.8239 14.5688C13.8352 14.5229 13.8373 14.4752 13.8302 14.4284L13.2536 10.6462C13.5295 10.5692 13.7262 10.3104 13.7127 10.0121C13.6971 9.66832 13.4087 9.40157 13.0655 9.4121L11.8066 1.15346C11.7995 1.10671 11.7832 1.06182 11.7587 1.02136C11.7343 0.980893 11.702 0.945647 11.6639 0.917632C11.6258 0.889618 11.5826 0.869383 11.5367 0.858084C11.4908 0.846785 11.4431 0.844643 11.3963 0.851781C11.3496 0.858899 11.3047 0.875156 11.2642 0.899626C11.2237 0.924095 11.1885 0.956296 11.1605 0.99439C11.1324 1.03248 11.1122 1.07573 11.1009 1.12164C11.0896 1.16756 11.0874 1.21526 11.0946 1.262L12.3421 9.44605L10.7497 9.52176C10.7497 9.52176 9.56588 7.90532 9.33861 7.7346C9.11139 7.56389 8.15199 7.15899 7.35191 7.10266L6.83869 7.82634L7.35634 11.4461L6.77875 12.12L6.20125 11.4461L6.71885 7.82634L6.20563 7.10266C5.40573 7.15899 5.03375 7.44035 4.67775 7.10279L3.78933 6.25587L2.60043 3.94063C2.4417 3.63147 2.06237 3.50961 1.75321 3.6683C1.44422 3.82698 1.32215 4.20639 1.48088 4.51551C1.48088 4.51551 2.62797 6.87346 2.84397 7.09338L4.62142 8.78789C4.79029 8.94989 5.08226 9.25209 5.08226 9.61229V17.932C5.08226 18.1641 5.18736 18.3716 5.35219 18.5127C3.5695 19.5892 1.72468 20.8084 0 22.0007L22 21.9966V19.0417ZM6.6379 17.7557V13.4531H6.91964L8.03137 16.9867C7.57715 17.2272 7.11154 17.4846 6.6379 17.7557Z" fill="#103358"/>
</g>
<defs>
<clipPath id="clip0_200_1522">
<rect width="22" height="22" fill="white"/>
</clipPath>
</defs>
</svg>
