<svg width="22" height="22" viewBox="0 0 22 22" fill="none" xmlns="http://www.w3.org/2000/svg">
<g clip-path="url(#clip0_200_1555)">
<path d="M19.5625 14.0508H4.4375C2.54206 14.0508 1 15.5928 1 17.4883C1 19.3837 2.54206 20.9258 4.4375 20.9258H19.5625C21.4579 20.9258 23 19.3837 23 17.4883C23 15.5928 21.4579 14.0508 19.5625 14.0508ZM5.55469 18.5625C4.96142 18.5625 4.48047 18.0816 4.48047 17.4883C4.48047 16.895 4.96142 16.4141 5.55469 16.4141C6.14796 16.4141 6.62891 16.895 6.62891 17.4883C6.62891 18.0816 6.14796 18.5625 5.55469 18.5625ZM9.85156 18.5625C9.25829 18.5625 8.77734 18.0816 8.77734 17.4883C8.77734 16.895 9.25829 16.4141 9.85156 16.4141C10.4448 16.4141 10.9258 16.895 10.9258 17.4883C10.9258 18.0816 10.4448 18.5625 9.85156 18.5625ZM14.1484 18.5625C13.5552 18.5625 13.0742 18.0816 13.0742 17.4883C13.0742 16.895 13.5552 16.4141 14.1484 16.4141C14.7417 16.4141 15.2227 16.895 15.2227 17.4883C15.2227 18.0816 14.7417 18.5625 14.1484 18.5625ZM18.4453 18.5625C17.852 18.5625 17.3711 18.0816 17.3711 17.4883C17.3711 16.895 17.852 16.4141 18.4453 16.4141C19.0386 16.4141 19.5195 16.895 19.5195 17.4883C19.5195 18.0816 19.0386 18.5625 18.4453 18.5625ZM16.082 5.45703H15.2227V4.29688C15.2227 2.5199 13.777 1.07422 12 1.07422C10.223 1.07422 8.77734 2.5199 8.77734 4.29688V5.45703H7.91797C7.56202 5.45703 7.27344 5.74561 7.27344 6.10156V11.2148C7.27344 11.5708 7.56202 11.8594 7.91797 11.8594H16.082C16.438 11.8594 16.7266 11.5708 16.7266 11.2148V6.10156C16.7266 5.74561 16.438 5.45703 16.082 5.45703ZM12.6445 8.85706V9.10938C12.6445 9.46533 12.356 9.75391 12 9.75391C11.644 9.75391 11.3555 9.46533 11.3555 9.10938V8.85706C11.1053 8.7685 10.9258 8.5305 10.9258 8.25C10.9258 7.89405 11.2144 7.60547 11.5703 7.60547H12.4297C12.7856 7.60547 13.0742 7.89405 13.0742 8.25C13.0742 8.5305 12.8947 8.7685 12.6445 8.85706ZM13.9336 5.45703H10.0664V4.29688C10.0664 3.23069 10.9338 2.36328 12 2.36328C13.0662 2.36328 13.9336 3.23069 13.9336 4.29688V5.45703Z" fill="#103358"/>
</g>
<defs>
<clipPath id="clip0_200_1555">
<rect width="22" height="22" fill="white"/>
</clipPath>
</defs>
</svg>
