<svg width="25" height="25" viewBox="0 0 25 25" fill="none" xmlns="http://www.w3.org/2000/svg">
<path d="M16.9688 15.625C16.5102 14.7281 14.1289 13.8328 13.3125 13.3281C13.2223 13.2817 13.1467 13.211 13.0943 13.1241C13.0419 13.0372 13.0146 12.9374 13.0156 12.8359V11.7031C13.0156 10.5703 12.0938 9.65625 10.9609 9.65625C9.82813 9.65625 8.91407 10.5703 8.91407 11.7031V15.3125C8.75 15.3828 8.58594 15.4844 8.42969 15.625C6.54375 17.2555 8.33203 20.3109 9.34375 21.6016L9.03125 23.2969C8.93282 23.7594 9.325 24.2328 9.79688 24.2187H16.1094C16.5734 24.2344 16.9547 23.7891 16.8906 23.3359L16.6172 21.3594C17.1109 20.9406 17.4406 20.3555 17.4297 19.6953C17.3656 18.6445 17.682 16.5055 16.9688 15.625ZM15.8672 19.6953C15.8195 20.2656 14.8836 20.5117 15.0156 21.1875L15.2188 22.6562H10.7344C10.775 22.2148 11.1531 21.2977 10.7891 20.9219C10 19.9219 8.94532 18.1172 9.15625 17.3984C9.25235 17.0797 9.33985 16.9461 9.48438 16.7266C9.96328 16.8711 10.4883 16.4672 10.4766 15.9688V11.7031C10.4813 11.0703 11.45 11.0711 11.4531 11.7031V12.8359C11.4531 13.625 11.8906 14.3438 12.5859 14.7109L15.2109 16.0781C15.4688 16.2109 15.6563 16.4219 15.7656 16.6719C15.9609 16.9547 15.8328 19.3375 15.8672 19.6953Z" fill="#103358"/>
<path d="M20.2578 14.8438V3.125C20.2578 1.83594 19.2031 0.78125 17.9141 0.78125H7.08594C5.79687 0.78125 4.74219 1.83594 4.74219 3.125V14.8438C4.74219 16.0469 5.65625 17.0391 6.82031 17.1719C6.83594 17.0234 6.86719 16.875 6.90625 16.7344C6.96953 16.4133 7.27656 15.9016 7.44531 15.625C7.59219 15.3133 7.89062 15.0273 8.13281 14.8594V11.7031C8.13281 10.1406 9.39844 8.875 10.9609 8.875C12.5234 8.875 13.7969 10.1406 13.7969 11.7031V12.6953L16.2969 14C16.8744 14.3023 17.3582 14.7571 17.6956 15.3148C18.033 15.8726 18.2112 16.5122 18.2109 17.1641C18.7756 17.0916 19.2947 16.8163 19.6713 16.3893C20.0479 15.9624 20.2564 15.4131 20.2578 14.8438ZM15.5312 8.34375H9.46875C8.44766 8.34063 8.44453 6.78438 9.46875 6.78125H15.5312C16.5523 6.78438 16.5555 8.34063 15.5312 8.34375ZM15.5312 5.46875H9.46875C8.44766 5.46562 8.44453 3.90937 9.46875 3.90625H15.5312C16.5523 3.90937 16.5555 5.46562 15.5312 5.46875Z" fill="#103358"/>
</svg>
